<svg width="410" height="410" viewBox="0 0 410 410" fill="none" xmlns="http://www.w3.org/2000/svg">
<g clip-path="url(#clip0_86_366)">
<path d="M205.483 369.863L198.623 369.863L195.359 343.417L205.485 343.418L205.483 369.863Z" fill="#A0616A"/>
<path d="M181.979 369.708C181.765 370.067 181.652 371.228 181.652 371.646C181.652 372.931 182.695 373.973 183.981 373.973H205.227C206.104 373.973 206.816 373.262 206.816 372.385V371.501C206.816 371.501 207.867 368.845 205.703 365.57C205.703 365.57 203.013 368.134 198.995 364.118L197.81 361.972L189.231 368.242L184.476 368.827C183.436 368.955 182.514 368.807 181.979 369.708H181.979V369.708Z" fill="#2F2E41"/>
<path d="M174.745 369.863L167.884 369.863L164.621 343.417L174.746 343.418L174.745 369.863Z" fill="#A0616A"/>
<path d="M151.24 369.708C151.026 370.067 150.914 371.228 150.914 371.646C150.914 372.931 151.956 373.973 153.242 373.973H174.488C175.366 373.973 176.077 373.262 176.077 372.385V371.501C176.077 371.501 177.128 368.845 174.964 365.57C174.964 365.57 172.275 368.134 168.256 364.118L167.071 361.972L158.492 368.242L153.738 368.827C152.697 368.955 151.775 368.807 151.24 369.708H151.24V369.708Z" fill="#2F2E41"/>
<path d="M206.072 203.952L212.46 220.309L207.47 350.965H193.497L180.922 233.076L177.928 351.364L164.356 350.965L149.585 219.711L159.365 207.942L206.072 203.952Z" fill="#2F2E41"/>
<path d="M175.933 111.196L192.699 110L197.889 118.378L213.458 122.766L207.669 163.259L213.857 223.7C213.857 223.7 191.502 220.509 189.905 226.892C188.308 233.275 149.186 220.509 149.186 220.509L162.559 179.217L161.362 146.902L157.769 128.152L174.136 120.572L175.933 111.196V111.196Z" fill="#E6E6E6"/>
<path d="M168.348 123.165C168.348 123.165 154.987 122.965 153.184 128.551C151.382 134.136 145.394 172.834 145.394 172.834L140.803 189.79L161.362 179.616L156.97 172.845L171.342 145.307L168.348 123.165H168.348Z" fill="#E6E6E6"/>
<path d="M176.521 185.202C178.73 185.204 180.784 183.931 181.643 181.897C182.293 180.359 182.231 178.883 181.745 177.618C181.902 177.553 182.057 177.486 182.217 177.429C181.982 177.333 181.753 177.226 181.524 177.118C180.729 175.533 179.203 174.382 177.386 174.103C175.135 171.693 173.751 168.465 173.737 164.911C173.707 157.588 179.652 151.471 186.978 151.295C187.036 151.294 187.093 151.292 187.151 151.292C190.431 151.254 193.407 153.088 195.069 155.915C196.039 157.564 197.831 158.671 199.885 158.671C201.457 158.671 202.875 158.022 203.888 156.977C206.097 154.701 208.862 153.008 211.992 152.488C214.047 152.147 216.174 152.018 218.351 152.126C233.249 152.866 246.067 166.062 246.385 180.966C246.739 197.566 233.381 211.133 216.851 211.133C208.25 211.133 200.511 207.458 195.114 201.594C192.718 198.991 189.36 197.532 185.821 197.569C185.785 197.569 185.749 197.569 185.713 197.569C179.981 197.569 175.334 192.925 175.334 187.196C175.334 186.879 175.349 186.565 175.379 186.255C175.434 185.676 175.939 185.201 176.521 185.202L176.521 185.202Z" fill="#FF9B63"/>
<path d="M369.599 295.667C368.874 294.445 365.737 295.753 365.16 294.644C364.585 293.539 367.5 291.856 369.165 288.01C369.466 287.316 371.358 282.945 369.957 281.596C367.302 279.04 355.151 289.59 350.898 286.137C349.965 285.38 349.313 283.867 346.488 281.412C345.365 280.435 344.685 279.994 344.028 280.158C343.095 280.391 343.021 281.638 342.02 284.092C340.52 287.772 339.632 287.55 338.758 290.486C338.109 292.665 338.257 293.932 337.494 294.179C336.413 294.529 335.418 292.217 334.049 292.424C332.651 292.635 331.806 295.327 331.54 297.342C331.039 301.124 332.428 303.619 333.199 306.243C334.036 309.095 334.533 313.432 332.599 319.571L313.466 373.445C317.69 362.39 329.921 332.086 335.06 320.825C336.544 317.574 338.182 314.277 341.545 312.975C344.784 311.722 349.231 312.47 354.901 311.105C355.563 310.946 357.401 310.479 357.632 309.399C357.823 308.506 356.742 308.007 356.909 307.171C357.131 306.049 359.257 306.035 361.869 304.741C363.711 303.828 364.858 302.743 365.845 301.81C366.142 301.528 370.564 297.293 369.599 295.667V295.667Z" fill="#F2F2F2"/>
<path d="M294.323 324.028C293.514 324.031 293.251 325.947 292.54 325.91C291.832 325.873 291.846 323.958 290.437 322.031C290.183 321.684 288.583 319.495 287.516 319.793C285.495 320.358 287.17 329.361 284.247 330.451C283.606 330.69 282.675 330.574 280.654 331.251C279.85 331.52 279.437 331.726 279.328 332.096C279.173 332.621 279.765 333.017 280.681 334.216C282.056 336.013 281.691 336.385 282.88 337.66C283.763 338.608 284.428 338.9 284.329 339.346C284.189 339.977 282.767 339.798 282.473 340.53C282.174 341.276 283.252 342.467 284.165 343.179C285.877 344.516 287.504 344.555 289.015 344.934C290.657 345.346 292.93 346.354 295.388 349.073L316.325 374.002C312.115 368.741 300.761 353.998 296.713 348.228C295.545 346.562 294.398 344.808 294.729 342.782C295.048 340.832 296.699 338.867 297.665 335.692C297.777 335.321 298.078 334.285 297.614 333.86C297.231 333.508 296.674 333.895 296.311 333.572C295.825 333.139 296.431 332.092 296.549 330.438C296.633 329.271 296.431 328.395 296.257 327.642C296.204 327.415 295.401 324.024 294.323 324.028V324.028Z" fill="#F2F2F2"/>
<path d="M310.47 327.65L309.982 323.3L310.205 322.97C311.236 321.445 311.761 319.956 311.767 318.542C311.768 318.318 311.758 318.093 311.747 317.864C311.705 316.957 311.653 315.829 312.241 314.514C312.571 313.781 313.498 312.083 314.892 312.293C315.267 312.346 315.551 312.518 315.766 312.72C315.798 312.669 315.83 312.619 315.865 312.564C316.299 311.903 316.643 311.619 316.974 311.346C317.228 311.136 317.491 310.92 317.903 310.407C318.083 310.182 318.224 309.985 318.343 309.819C318.703 309.317 319.174 308.718 320.005 308.729C320.891 308.771 321.356 309.504 321.664 309.989C322.214 310.855 322.463 311.478 322.628 311.892C322.687 312.043 322.756 312.214 322.79 312.266C323.076 312.686 325.4 312.293 326.275 312.151C328.242 311.823 329.943 311.539 330.644 312.779C331.146 313.665 330.773 314.837 329.502 316.356C329.105 316.828 328.684 317.188 328.31 317.469C328.62 317.654 328.897 317.937 329.01 318.383C329.275 319.437 328.368 320.494 326.315 321.527C325.806 321.786 325.119 322.13 324.158 322.296C323.705 322.374 323.297 322.393 322.948 322.403C322.941 322.605 322.893 322.823 322.771 323.048C322.41 323.71 321.66 324.025 320.529 323.949C319.285 323.884 318.26 323.647 317.356 323.439C316.567 323.258 315.887 323.105 315.353 323.14C314.363 323.22 313.6 324.012 312.705 325.039L310.47 327.65V327.65Z" fill="#F2F2F2"/>
<path d="M312.732 301.749L308.645 303.324L308.269 303.193C306.532 302.583 304.957 302.453 303.587 302.805C303.369 302.861 303.154 302.928 302.935 302.996C302.068 303.267 300.989 303.604 299.567 303.369C298.774 303.236 296.896 302.77 296.746 301.37C296.702 300.994 296.796 300.676 296.937 300.416C296.88 300.399 296.823 300.38 296.761 300.36C296.011 300.109 295.649 299.848 295.301 299.598C295.033 299.405 294.757 299.206 294.157 298.938C293.893 298.82 293.666 298.734 293.476 298.661C292.898 298.44 292.199 298.137 291.999 297.332C291.815 296.464 292.406 295.829 292.798 295.408C293.496 294.657 294.037 294.258 294.396 293.994C294.527 293.897 294.674 293.788 294.716 293.741C295.05 293.358 294.081 291.212 293.72 290.402C292.904 288.584 292.198 287.011 293.22 286.019C293.951 285.309 295.18 285.372 296.972 286.216C297.53 286.479 297.985 286.796 298.352 287.086C298.452 286.739 298.656 286.399 299.059 286.178C300.012 285.654 301.265 286.263 302.786 287.985C303.165 288.412 303.673 288.988 304.077 289.875C304.267 290.294 304.389 290.683 304.488 291.018C304.685 290.974 304.908 290.964 305.157 291.026C305.889 291.206 306.384 291.852 306.598 292.964C306.85 294.183 306.881 295.234 306.909 296.161C306.934 296.969 306.958 297.665 307.128 298.173C307.456 299.109 308.416 299.646 309.638 300.251L312.732 301.749L312.732 301.749Z" fill="#F2F2F2"/>
<path d="M310.47 288.934L309.982 284.584L310.205 284.254C311.236 282.729 311.761 281.24 311.767 279.826C311.768 279.601 311.758 279.377 311.747 279.148C311.705 278.24 311.653 277.112 312.241 275.797C312.571 275.064 313.498 273.367 314.892 273.577C315.267 273.63 315.551 273.802 315.766 274.004C315.798 273.953 315.83 273.903 315.865 273.848C316.299 273.187 316.643 272.903 316.974 272.63C317.228 272.42 317.491 272.204 317.903 271.691C318.083 271.466 318.224 271.269 318.343 271.103C318.703 270.601 319.174 270.002 320.005 270.013C320.891 270.055 321.356 270.788 321.664 271.273C322.214 272.138 322.463 272.762 322.628 273.176C322.687 273.327 322.756 273.497 322.79 273.55C323.076 273.97 325.4 273.577 326.275 273.434C328.242 273.107 329.943 272.823 330.644 274.062C331.146 274.949 330.773 276.121 329.502 277.64C329.105 278.112 328.684 278.471 328.31 278.753C328.62 278.938 328.897 279.221 329.01 279.667C329.275 280.721 328.368 281.778 326.315 282.811C325.806 283.069 325.119 283.414 324.158 283.58C323.705 283.658 323.297 283.676 322.948 283.687C322.941 283.889 322.893 284.107 322.771 284.332C322.41 284.993 321.66 285.308 320.529 285.233C319.285 285.168 318.26 284.93 317.356 284.722C316.567 284.542 315.887 284.388 315.353 284.424C314.363 284.504 313.6 285.296 312.705 286.323L310.47 288.934V288.934Z" fill="#F2F2F2"/>
<path d="M314.923 373.374L314.011 372.802L313.79 371.75L314.011 372.802L312.947 372.924C312.931 372.825 312.873 372.599 312.786 372.244C312.31 370.299 310.858 364.379 309.648 355.057C308.803 348.55 308.324 341.86 308.226 335.17C308.127 328.469 308.444 323.397 308.699 319.32C308.891 316.245 309.124 313.316 309.353 310.464C309.963 302.843 310.538 295.645 310.11 287.676C310.015 285.897 309.817 282.193 307.652 278.253C306.396 275.968 304.666 273.938 302.51 272.225L303.851 270.54C306.231 272.435 308.145 274.682 309.539 277.219C311.94 281.588 312.156 285.624 312.26 287.562C312.695 295.672 312.114 302.94 311.498 310.634C311.271 313.476 311.038 316.392 310.847 319.454C310.594 323.493 310.28 328.522 310.378 335.136C310.475 341.747 310.948 348.355 311.781 354.78C312.977 363.984 314.407 369.815 314.877 371.731C315.127 372.754 315.18 372.968 314.923 373.374V373.374Z" fill="#F2F2F2"/>
<path d="M298.563 275.642C298.475 275.642 298.385 275.64 298.295 275.634C296.462 275.535 294.765 274.438 293.25 272.376C292.539 271.405 292.175 270.298 291.45 268.091C291.338 267.75 290.791 266.024 290.459 263.648C290.242 262.096 290.269 261.447 290.577 260.873C290.919 260.235 291.471 259.79 292.094 259.489C292.066 259.283 292.088 259.071 292.178 258.855C292.544 257.958 293.52 258.076 294.047 258.132C294.314 258.166 294.647 258.21 295.007 258.191C295.572 258.164 295.876 257.996 296.336 257.744C296.776 257.502 297.324 257.202 298.136 257.036C299.738 256.702 301.08 257.156 301.522 257.305C303.85 258.08 304.998 259.888 306.326 261.983C306.591 262.403 307.5 263.932 308.1 266.028C308.533 267.54 308.472 268.213 308.342 268.712C308.077 269.74 307.452 270.328 305.864 271.626C304.205 272.985 303.373 273.665 302.658 274.079C300.995 275.039 299.95 275.642 298.563 275.642V275.642Z" fill="#F2F2F2"/>
<path d="M225.634 176.425L126.232 157.674L125.833 164.855L224.436 188.393L225.634 176.425Z" fill="#FF9B63"/>
<path d="M127.429 158.871L126.232 157.674C126.232 157.674 121.042 155.281 121.042 154.882C121.042 154.632 113.379 152.038 107.645 150.132C104.443 149.067 101.062 151.174 100.606 154.515L99.8872 159.781C99.4576 162.929 101.835 165.763 105.012 165.89L119.046 166.451L125.833 164.855L127.429 158.871V158.871Z" fill="#FF9B63"/>
<path d="M225.434 178.619L225.671 177.625L126.206 158.622L126.032 159.868L225.434 178.619Z" fill="#3F3D56"/>
<path d="M225.206 180.506L225.434 179.417L126.098 160.589L126.032 161.863L225.206 180.506Z" fill="#3F3D56"/>
<path d="M224.978 182.768L225.035 181.013L126.02 162.021L126.032 163.06L224.978 182.768Z" fill="#3F3D56"/>
<path d="M224.713 185.395L224.636 183.805L125.875 163.453L125.79 163.842L224.713 185.395Z" fill="#3F3D56"/>
<path d="M224.711 186.987L224.636 185.8L126.024 164.111L125.935 164.5L224.711 186.987Z" fill="#3F3D56"/>
<path d="M167.593 120.621L172.539 117.884L174.685 161.664L173.937 167.049C173.937 167.049 161.45 132.639 167.593 120.621H167.593Z" fill="#3F3D56"/>
<path d="M184.515 107.008C191.35 107.008 196.891 101.471 196.891 94.6402C196.891 87.8098 191.35 82.2727 184.515 82.2727C177.681 82.2727 172.14 87.8098 172.14 94.6402C172.14 101.471 177.681 107.008 184.515 107.008Z" fill="#A0616A"/>
<path d="M173.936 102.021L176.895 104.381L173.537 91.648C173.537 91.648 182.919 91.4485 183.717 86.2621C183.717 86.2621 191.102 86.0627 193.098 86.0627C195.094 86.0627 195.995 99.2617 195.995 99.2617C195.995 99.2617 199.885 88.4564 195.893 82.8711C191.901 77.2858 193.298 80.6768 192.499 78.6821C191.701 76.6874 183.517 74.8528 178.328 76.8868C173.138 78.9208 172.938 81.8203 171.342 81.847C169.745 81.8737 164.156 89.8527 169.346 96.2359C174.535 102.619 173.936 102.021 173.936 102.021V102.021Z" fill="#2F2E41"/>
<path d="M211.744 183.179C213.211 182.009 214.292 180.605 214.901 179.218L229.578 168.957L224.489 162.12L210.148 173.265C208.659 173.55 207.049 174.292 205.582 175.461C202.231 178.133 200.894 182.027 202.596 184.158C204.297 186.289 208.393 185.851 211.744 183.179V183.179Z" fill="#A0616A"/>
<path d="M155.511 167.571C154.423 169.099 153.77 170.746 153.566 172.247L142.278 186.146L149.053 191.32L159.774 176.664C161.127 175.981 162.47 174.825 163.559 173.298C166.045 169.808 166.259 165.697 164.037 164.115C161.815 162.534 157.998 164.081 155.511 167.571L155.511 167.571Z" fill="#A0616A"/>
<path d="M207.071 125.359C207.071 125.359 210.663 119.375 214.256 122.966C217.099 125.807 232.69 143.886 239.074 151.309C240.835 153.355 241.801 155.963 241.801 158.663C241.801 162.838 239.495 166.671 235.805 168.629L215.853 179.217L210.264 170.839L227.43 158.472L201.083 144.11L207.071 125.359V125.359Z" fill="#E6E6E6"/>
<path d="M143.981 180.506L140.803 189.79L149.984 194.577L156.97 189.79L161.362 179.616L148.388 175.826" fill="#E6E6E6"/>
<path d="M292.418 91.5306L262.259 99.7179L266.647 119.275C265.228 118.323 263.522 117.767 261.685 117.767C256.759 117.767 252.766 121.758 252.766 126.681C252.766 131.603 256.759 135.594 261.685 135.594C266.611 135.594 270.604 131.603 270.604 126.681C270.604 124.97 270.113 123.377 269.276 122.019L265.797 106.514L291.815 98.3393L294.195 109.889C292.767 108.918 291.042 108.35 289.185 108.35C284.259 108.35 280.266 112.341 280.266 117.263C280.266 122.186 284.259 126.177 289.185 126.177C294.111 126.177 298.104 122.186 298.104 117.263C298.104 115.534 297.603 113.925 296.75 112.559L292.418 91.5306V91.5306Z" fill="#FFBC0F"/>
<path d="M321.996 109.812C317.121 109.812 313.169 113.762 313.169 118.633C313.169 120.01 313.494 121.309 314.057 122.47L319.095 143.237L321.955 142.544L318.068 126.524C319.252 127.114 320.583 127.454 321.996 127.454C326.871 127.454 330.822 123.505 330.822 118.633C330.822 113.762 326.871 109.812 321.996 109.812V109.812Z" fill="#FFBC0F"/>
<path d="M357.916 155.583L352.915 135.594L349.879 136.307L353.79 151.942C352.587 151.397 351.25 151.085 349.835 151.085C344.659 151.085 340.463 155.15 340.463 160.165C340.463 165.18 344.659 169.246 349.835 169.246C355.01 169.246 359.206 165.18 359.206 160.165C359.206 158.491 358.731 156.929 357.916 155.583V155.583Z" fill="#FFBC0F"/>
<path d="M371 374.096C371 374.437 370.724 374.713 370.383 374.713H79V373.48H370.383C370.724 373.48 371 373.756 371 374.096L371 374.096Z" fill="#E6E6E6"/>
</g>
<defs>
<clipPath id="clip0_86_366">
<rect width="292" height="298.713" fill="white" transform="translate(79 76)"/>
</clipPath>
</defs>
</svg>
