<svg width="800" height="800" viewBox="0 0 800 800" fill="none" xmlns="http://www.w3.org/2000/svg">
<g clip-path="url(#clip0_104_232)">
<path d="M444.094 668.229C594.73 668.229 716.844 546.175 716.844 395.614C716.844 245.054 594.73 123 444.094 123C293.459 123 171.345 245.054 171.345 395.614C171.345 546.175 293.459 668.229 444.094 668.229Z" fill="#F2F2F2"/>
<path d="M527.456 293.294C566.629 293.294 598.385 261.553 598.385 222.399C598.385 183.245 566.629 151.505 527.456 151.505C488.283 151.505 456.526 183.245 456.526 222.399C456.526 261.553 488.283 293.294 527.456 293.294Z" fill="#B7D9BA"/>
<path d="M230.105 175.976L232.044 216.376C240.081 227.09 248.751 239.35 257.308 252.712L258.53 191.078L259.204 191.508C249.306 184.441 239.244 179.034 229.431 175.602L230.105 175.976Z" fill="#3FAD48"/>
<path d="M230.631 214.499L228.754 175.365C217.733 171.608 207.04 170.362 197.265 172.104C196.757 172.195 196.257 172.299 195.758 172.405C198.242 175.068 212.715 190.796 230.631 214.499Z" fill="#CAEAA8"/>
<path d="M319.617 262.697L320.268 263.318C317.597 258.297 314.765 253.415 311.774 248.673L293.548 320.351L293.24 320.079C294.557 323.223 295.811 326.346 296.999 329.448L319.617 262.697Z" fill="#60E7AF"/>
<path d="M291.852 221.947L292.524 222.484C282.888 211.073 271.934 200.842 259.89 192.006L258.645 254.815C266.607 267.375 273.737 279.747 280.033 291.93L291.852 221.947Z" fill="#60E7AF"/>
<path d="M159.643 241.556C160.667 252.143 162.758 262.599 165.886 272.765L274.57 283.97C268.896 273.512 263.039 263.701 257.353 254.759L159.919 242.41L159.643 241.556Z" fill="#CAEAA8"/>
<path d="M169.84 284.489L169.547 283.636L279.545 293.409C278.216 290.811 276.873 288.247 275.514 285.718L166.429 274.472L166.142 273.618C167.242 277.202 168.474 280.825 169.84 284.489Z" fill="#60E7AF"/>
<path d="M310.535 247.178L311.197 247.761C305.743 239.188 299.717 230.993 293.159 223.231L281.18 294.16C285.332 302.308 289.092 310.341 292.461 318.259L310.535 247.178Z" fill="#3FAD48"/>
<path d="M308.209 365.662C312.581 384.57 314.237 402.448 313.144 419.098C319.295 405.999 342.688 351.729 333.943 301.151L308.209 365.662Z" fill="#8AD173"/>
<path d="M190.018 322.715C195.838 330.551 202.178 337.989 208.993 344.978L208.728 344.03L306.574 364.15C304.029 353.592 300.852 343.196 297.061 333.018L190.018 322.715Z" fill="#CAEAA8"/>
<path d="M229.787 215.159C210.396 189.519 195.096 173.313 194.876 173.081L195.128 172.541C180.413 175.88 170.023 185.887 164.307 200.371L229.787 215.159Z" fill="#CAEAA8"/>
<path d="M297.904 331.854C298.266 332.818 298.633 333.785 298.982 334.745C302.342 343.947 305.199 353.324 307.539 362.836L333.03 298.937L333.652 299.561C332.038 290.669 329.304 282.018 325.514 273.813C324.011 270.596 322.437 267.428 320.792 264.308L297.904 331.854Z" fill="#CAEAA8"/>
<path d="M256.214 252.977C247.745 239.773 239.173 227.66 231.228 217.072L164.245 201.944L164.018 201.099C159.837 212.106 158.308 225.627 159.574 240.729L256.214 252.977Z" fill="#3FAD48"/>
<path d="M306.971 365.828L209.84 345.856C250.695 387.775 307.854 419.923 311.502 421.955C313.204 403.486 311.274 384.516 306.971 365.828Z" fill="#8AD173"/>
<path d="M296.373 331.297L296.394 331.233C291.724 318.926 286.394 306.88 280.428 295.147L170.159 285.35C172.031 290.305 174.147 295.313 176.506 300.374C179.943 307.585 184.031 314.467 188.718 320.935L296.373 331.297Z" fill="#3FAD48"/>
<path d="M436.64 312.054L412.353 344.406C411.706 357.781 410.56 372.751 408.624 388.497L448.895 341.806L449.14 342.568C446.026 330.814 441.727 320.235 436.36 311.336L436.64 312.054Z" fill="#CAEAA8"/>
<path d="M412.462 342.059L435.989 310.722C429.898 300.803 422.457 293.026 413.817 288.137C413.368 287.882 412.916 287.644 412.465 287.407C412.678 291.042 413.788 312.382 412.462 342.059Z" fill="#3FAD48"/>
<path d="M450.241 435.91L450.346 436.802C451.493 431.232 452.428 425.668 453.15 420.108L393.373 463.695L393.308 463.289C392.317 466.551 391.289 469.755 390.225 472.901L450.241 435.91Z" fill="#60E7AF"/>
<path d="M454.861 386.824L455.035 387.666C454.896 372.734 452.987 357.871 449.35 343.388L408.31 390.969C406.428 405.719 404.025 419.792 401.099 433.189L454.861 386.824Z" fill="#3FAD48"/>
<path d="M340.521 317.644C334.554 326.45 329.493 335.836 325.414 345.66L401.971 423.576C404.275 411.904 406.025 400.614 407.352 390.102L340.189 318.478L340.521 317.644Z" fill="#3FAD48"/>
<path d="M320.978 357.21L321.297 356.367L399.78 434.017C400.414 431.169 401.015 428.338 401.583 425.524L324.743 347.321L325.067 346.48C323.627 349.941 322.264 353.518 320.978 357.21Z" fill="#60E7AF"/>
<path d="M453.15 418.167L453.287 419.038C454.557 408.958 455.146 398.805 455.048 388.646L400.56 435.638C398.558 444.56 396.329 453.144 393.871 461.391L453.15 418.167Z" fill="#CAEAA8"/>
<path d="M375.749 507.939C367.051 525.289 356.918 540.115 345.451 552.241C358.548 546.073 411.196 519.188 436.736 474.659L375.749 507.939Z" fill="#8AD173"/>
<path d="M312.126 399.515C311.608 409.261 311.744 419.031 312.534 428.758L312.934 427.859L375.455 505.733C380.232 495.978 384.419 485.946 387.994 475.69L312.126 399.515Z" fill="#60E7AF"/>
<path d="M411.39 342.029C412.817 309.92 411.375 287.684 411.353 287.365L411.892 287.11C398.428 280.301 384.041 281.385 370.395 288.896L411.39 342.029Z" fill="#3FAD48"/>
<path d="M389.387 475.332C389.05 476.305 388.716 477.284 388.372 478.246C385.089 487.475 381.305 496.518 377.038 505.336L437.446 472.372L437.527 473.249C441.958 465.372 445.373 456.966 447.69 448.231C448.585 444.794 449.394 441.351 450.119 437.899L389.387 475.332Z" fill="#8AD173"/>
<path d="M407.611 388.004C409.515 372.435 410.642 357.641 411.28 344.422L369.344 290.069L369.708 289.273C359.464 295.084 349.658 304.524 340.996 316.963L407.611 388.004Z" fill="#CAEAA8"/>
<path d="M374.689 507.278L312.625 429.975C317.342 488.305 340.85 549.505 342.363 553.395C355.46 540.256 366.079 524.414 374.689 507.278Z" fill="#6C63FF"/>
<path d="M388.563 473.926L388.621 473.891C392.877 461.435 396.459 448.759 399.351 435.919L320.675 358.077C318.955 363.087 317.388 368.293 315.976 373.695C314.022 381.439 312.778 389.346 312.261 397.316L388.563 473.926Z" fill="#CAEAA8"/>
<path d="M194.477 355.247L208.814 393.069C219.771 400.776 231.808 409.757 244.078 419.821L226.179 360.828L226.954 361.029C215.355 357.366 204.114 355.332 193.72 355.099L194.477 355.247Z" fill="#3FAD48"/>
<path d="M206.889 391.721L193.001 355.083C181.359 354.915 170.804 357.034 162.047 361.71C161.591 361.954 161.148 362.207 160.707 362.462C163.892 364.227 182.52 374.714 206.889 391.721Z" fill="#CAEAA8"/>
<path d="M306.423 410.068L307.234 410.457C303.141 406.507 298.939 402.739 294.627 399.153L299.46 472.951L299.083 472.788C301.309 475.372 303.466 477.955 305.556 480.537L306.423 410.068Z" fill="#6C63FF"/>
<path d="M267.416 379.891L268.22 380.194C255.527 372.318 241.946 365.973 227.76 361.291L245.999 421.408C257.456 430.893 268.062 440.457 277.817 450.098L267.416 379.891Z" fill="#CAEAA8"/>
<path d="M147.745 439.385C151.993 449.137 157.215 458.434 163.333 467.137L270.16 444.215C261.53 436.023 252.926 428.501 244.753 421.754L148.272 440.112L147.745 439.385Z" fill="#CAEAA8"/>
<path d="M170.719 477.064L170.177 476.344L277.811 451.655C275.744 449.595 273.673 447.572 271.599 445.586L164.378 468.592L163.841 467.869C165.995 470.937 168.287 474.002 170.719 477.064Z" fill="#3FAD48"/>
<path d="M292.986 398.114L293.796 398.464C285.958 391.996 277.693 386.063 269.056 380.708L279.598 451.864C286.066 458.33 292.127 464.808 297.78 471.298L292.986 398.114Z" fill="#3FAD48"/>
<path d="M327.416 511.515C337.42 528.146 344.524 544.637 348.634 560.81C350.432 546.451 355.897 487.612 331.94 442.212L327.416 511.515Z" fill="#6C63FF"/>
<path d="M201.731 507.185C209.69 512.839 218.018 517.954 226.661 522.495L226.116 521.676L325.393 510.582C319.707 501.327 313.471 492.421 306.718 483.913L201.731 507.185Z" fill="#3FAD48"/>
<path d="M206.291 392.61C179.92 374.216 160.357 363.531 160.076 363.378L160.149 362.786C147.187 370.508 140.401 383.234 139.443 398.775L206.291 392.61Z" fill="#3FAD48"/>
<path d="M307.161 482.545C307.802 483.351 308.451 484.157 309.08 484.962C315.121 492.675 320.738 500.711 325.905 509.034L330.386 440.388L331.171 440.79C326.887 432.832 321.611 425.449 315.47 418.817C313.045 416.222 310.568 413.695 308.039 411.236L307.161 482.545Z" fill="#6C63FF"/>
<path d="M243.119 420.411C230.981 410.47 219.083 401.599 208.253 393.984L139.872 400.29L139.395 399.557C138.822 411.317 141.549 424.648 147.424 438.62L243.119 420.411Z" fill="#60E7AF"/>
<path d="M326.289 512.055L227.738 523.069C279.556 550.313 343.858 563.228 347.956 564.034C343.863 545.943 336.161 528.498 326.289 512.055Z" fill="#CAEAA8"/>
<path d="M305.531 482.489L305.532 482.421C297.285 472.16 288.491 462.351 279.188 453.035L171.289 477.785C174.602 481.919 178.163 486.028 181.972 490.113C187.47 495.908 193.486 501.191 199.945 505.894L305.531 482.489Z" fill="#CAEAA8"/>
<path d="M779 586.372C779 619.068 610.725 677 403.147 677C195.569 677 27.2944 619.068 27.2944 586.372C27.2944 553.677 195.569 558.599 403.147 558.599C610.725 558.599 779 553.677 779 586.372Z" fill="#3F3D56"/>
<path opacity="0.1" d="M779 586.372C779 619.068 610.725 677 403.147 677C195.569 677 27.2944 619.068 27.2944 586.372C27.2944 553.677 195.569 558.599 403.147 558.599C610.725 558.599 779 553.677 779 586.372Z" fill="black"/>
<path d="M403.147 645.573C610.725 645.573 779 619.068 779 586.372C779 553.677 610.725 527.172 403.147 527.172C195.569 527.172 27.2944 553.677 27.2944 586.372C27.2944 619.068 195.569 645.573 403.147 645.573Z" fill="#3F3D56"/>
<path opacity="0.1" d="M468.309 524.495C468.309 560.116 418.634 549.098 357.811 549.098C296.988 549.098 248.05 560.116 248.05 524.495C248.05 488.874 297.719 481.127 358.542 481.127C419.365 481.127 468.309 488.874 468.309 524.495Z" fill="black"/>
<path d="M468.309 515.725C468.309 551.345 418.634 540.327 357.811 540.327C296.988 540.327 248.05 551.345 248.05 515.725C248.05 480.104 297.719 472.357 358.542 472.357C419.365 472.357 468.309 480.104 468.309 515.725Z" fill="#3F3D56"/>
<path d="M272.644 417.711C273.982 416.759 275.459 416.019 277.022 415.516C286.934 411.83 297.319 409.571 307.867 408.805C317.038 408.155 326.979 408.927 334.142 414.689C335.256 415.506 336.168 416.568 336.807 417.792C337.709 419.736 337.435 421.996 337.144 424.118C337.078 424.941 336.871 425.747 336.53 426.499C335.566 428.334 333.193 428.977 331.131 428.757C329.07 428.537 327.136 427.665 325.102 427.261C323.844 427.041 322.571 426.912 321.294 426.873L308.542 426.183C300.612 425.754 292.578 425.332 284.799 426.932C282.404 427.362 280.091 428.159 277.939 429.294C276.163 430.291 274.966 431.722 273.318 429.88C270.421 426.645 268.818 420.699 272.644 417.711Z" fill="#2F2E41"/>
<path d="M292.406 423.347C292.406 423.347 309.558 415.662 316.064 424.53C322.571 433.397 312.516 429.85 312.516 429.85L301.278 433.397L288.857 431.033L292.406 423.347Z" fill="#F2F2F2"/>
<path d="M293.293 417.731C293.293 417.731 295.659 428.963 293.884 431.919C292.11 434.875 303.939 439.013 303.939 439.013L315.177 434.284C315.177 434.284 312.22 415.957 315.177 412.41L293.293 417.731Z" fill="#FFB9B9"/>
<path opacity="0.1" d="M293.293 417.731C293.293 417.731 295.659 428.963 293.884 431.919C292.11 434.875 303.939 439.013 303.939 439.013L315.177 434.284C315.177 434.284 312.22 415.957 315.177 412.41L293.293 417.731Z" fill="black"/>
<path d="M282.21 552.792C283.8 556.088 285.108 559.513 286.118 563.03C286.135 563.146 286.176 563.257 286.238 563.356C286.301 563.456 286.384 563.54 286.482 563.605C286.579 563.67 286.69 563.714 286.806 563.733C286.921 563.753 287.04 563.747 287.153 563.718L297.674 563.706C298.972 563.705 300.714 563.288 300.701 561.99C300.691 561.078 299.759 560.51 299.065 559.918C297.139 558.276 296.638 555.568 295.84 553.166C294.29 548.54 291.302 544.529 287.312 541.718C286.773 541.296 286.152 540.989 285.489 540.817C284.822 540.721 284.143 540.757 283.49 540.926C281.644 541.298 274.747 542.572 276.05 545.257C276.611 546.413 278.69 547.617 279.561 548.697C280.577 549.971 281.464 551.343 282.21 552.792Z" fill="#54877B"/>
<path d="M318.794 540.596C318.423 541.375 318.01 542.134 317.557 542.869C316.033 545.381 314.235 547.725 312.815 550.298C311.858 551.87 311.268 553.637 311.087 555.468C311.006 556.384 311.146 557.305 311.495 558.155C311.845 559.006 312.393 559.76 313.095 560.354C314.622 561.512 316.716 561.566 318.614 561.296C320.512 561.026 322.399 560.482 324.311 560.626C323.666 556.98 326.742 553.771 327.512 550.15C327.728 549.133 327.76 548.078 328.049 547.079C328.361 546.166 328.76 545.285 329.24 544.448C330.772 541.466 331.855 538.274 332.453 534.976C332.525 534.576 323.101 534.511 322.217 534.702C319.458 535.298 319.862 538.31 318.794 540.596Z" fill="#54877B"/>
<path d="M246.156 483.321C243.465 487.529 244.085 493.106 245.975 497.729C247.864 502.352 250.872 506.439 252.93 510.989C254.242 513.89 255.163 516.966 256.64 519.787C258.47 523.279 261.142 526.358 262.37 530.104C263.152 532.492 263.332 535.11 264.6 537.28C265.366 538.44 266.241 539.525 267.212 540.519C269.943 543.646 271.993 547.307 273.233 551.269C274.392 547.818 277.862 545.556 281.426 544.81C284.99 544.064 288.683 544.571 292.288 545.08C290.277 541.965 288.246 538.812 287.047 535.304C285.888 531.911 285.546 528.302 284.765 524.803C283.163 517.628 279.741 511.01 276.354 504.484L293.765 503.104C296.607 502.819 299.464 502.713 302.319 502.787C306.813 502.999 311.215 504.1 315.685 504.609C320.155 505.118 324.884 504.984 328.868 502.895C321.25 513.819 317.283 526.87 317.534 540.183C319.236 538.865 321.212 537.943 323.317 537.487C325.422 537.03 327.602 537.05 329.698 537.544C331.794 538.039 333.753 538.995 335.432 540.344C337.11 541.693 338.466 543.4 339.399 545.341C346.222 536.021 345.411 523.047 350.817 512.841C351.929 510.742 353.292 508.788 354.492 506.738C356.759 502.622 358.7 498.335 360.297 493.915C361.809 490.049 363.333 485.747 361.882 481.857C361.28 480.381 360.403 479.033 359.298 477.885C356.178 474.447 351.836 471.904 347.194 471.798C340.068 471.636 334.181 476.915 327.93 480.339C320.468 484.303 312.027 486.052 303.603 485.381C295.016 484.774 286.816 481.964 278.635 479.49C274.543 478.195 270.383 477.123 266.175 476.277C262.667 475.62 259.326 476.348 255.869 477.245C252.105 478.221 248.322 479.933 246.156 483.321Z" fill="#2F2E41"/>
<path d="M320.5 406.499C320.496 411.201 318.626 415.71 315.299 419.035C311.972 422.36 307.461 424.23 302.756 424.234C301.699 424.236 300.644 424.141 299.604 423.95C296.283 423.351 293.202 421.817 290.722 419.53C288.243 417.242 286.467 414.295 285.604 411.035C284.741 407.774 284.826 404.335 285.849 401.121C286.872 397.907 288.791 395.051 291.38 392.889C293.97 390.726 297.122 389.347 300.469 388.912C303.815 388.477 307.216 389.004 310.273 390.433C313.329 391.862 315.915 394.132 317.727 396.978C319.538 399.823 320.5 403.126 320.5 406.499V406.499Z" fill="#FFB9B9"/>
<path d="M292.406 423.347C292.406 423.347 295.659 424.825 296.842 426.008C298.025 427.19 301.573 433.693 307.488 429.555C313.403 425.416 313.994 423.052 315.769 423.052C317.543 423.052 319.909 426.599 319.909 426.599L336.174 475.371C331.79 480.316 326.71 484.598 321.092 488.081C311.628 493.993 300.391 496.948 295.067 494.584C289.744 492.219 279.689 490.445 277.915 485.716C276.14 480.987 273.183 466.799 273.183 466.799L281.464 430.737L292.406 423.347Z" fill="#F2F2F2"/>
<path d="M290.122 472.674C291.411 469.89 291.599 466.739 291.708 463.673C291.882 460.636 291.801 457.59 291.467 454.567C290.943 450.613 289.655 446.803 288.841 442.898C288.128 439.473 287.781 435.981 287.807 432.483C287.819 430.887 287.934 429.206 288.804 427.867C289.412 426.934 290.361 426.21 290.741 425.163C291.485 423.11 289.647 420.96 287.632 420.115C285.179 419.195 282.495 419.087 279.976 419.807C277.477 420.529 275.062 421.516 272.774 422.752C271.043 423.49 269.452 424.518 268.068 425.793C266.232 427.692 265.425 430.336 264.773 432.896C264.251 434.944 263.787 437.08 264.184 439.156C264.829 442.527 267.579 445.062 269.044 448.166C270.746 451.77 270.632 455.971 269.955 459.898C269.278 463.826 268.076 467.666 267.705 471.635C267.335 475.603 267.904 479.868 270.391 482.984C271.405 484.253 274.155 487.261 276.01 486.921C277.468 486.654 279.582 483.446 280.756 482.429C284.148 479.492 288.174 476.88 290.122 472.674Z" fill="#2F2E41"/>
<path d="M321.111 421.419C321.162 424.716 319.708 427.851 317.998 430.671C316.288 433.491 314.279 436.158 313.019 439.205C311.453 443.02 311.134 447.232 312.106 451.239C312.467 452.604 312.903 453.949 313.411 455.266L316.651 464.151C317.087 465.548 317.72 466.876 318.531 468.094C319.263 469.028 320.123 469.854 321.084 470.55C323.546 472.537 326.379 474.014 329.417 474.895C332.477 475.769 335.743 475.583 338.683 474.367C338.996 462.322 340.932 450.375 344.439 438.848C345.087 436.72 345.795 434.48 345.295 432.312C344.735 429.884 342.784 428.062 340.929 426.397C335.257 421.306 329.02 415.958 321.428 415.272C317.034 414.875 321.073 419.036 321.111 421.419Z" fill="#2F2E41"/>
<path d="M282.296 490.152C282.746 491.032 283.026 491.99 283.47 492.873C284.127 494.057 284.938 495.148 285.884 496.117C289.838 500.5 294.673 504.866 300.572 505.13C301.158 505.185 301.749 505.111 302.303 504.912C302.802 504.657 303.23 504.284 303.552 503.825C303.873 503.366 304.077 502.835 304.145 502.28C304.564 499.99 303.552 497.706 302.54 495.61C300.346 491.068 297.877 486.41 293.769 483.481C291.717 482.076 289.374 481.154 286.915 480.784C284.456 480.414 281.945 480.606 279.571 481.346C277.431 482.005 273.882 483.155 276.716 485.106C278.865 486.587 281.05 487.714 282.296 490.152Z" fill="#FFB9B9"/>
<path d="M307.796 432.322C307.18 430.66 306.236 429.139 305.02 427.849C303.794 426.813 302.342 426.077 300.78 425.702C298.757 425.124 296.664 424.824 294.56 424.811C292.055 424.795 289.151 425.467 288.087 427.734C287.242 429.534 287.897 431.665 288.748 433.463C289.111 434.394 289.716 435.211 290.501 435.83C291.581 436.56 292.978 436.536 294.259 436.781C296.245 437.285 298.125 438.136 299.813 439.296L304.2 441.947L311.736 446.5C311.538 446.38 311.608 441.215 311.377 440.368C310.631 437.641 308.953 434.905 307.796 432.322Z" fill="#FFB9B9"/>
<path d="M285.844 561.691C284.081 564.086 284.434 567.51 282.873 570.041C281.519 572.235 278.967 573.385 277.273 575.329C276.733 575.975 276.251 576.667 275.834 577.398C274.263 580.029 272.986 583.399 274.533 586.044C275.778 588.171 278.394 589.002 280.793 589.569C283.826 590.285 286.977 590.858 290.044 590.311C293.112 589.763 296.11 587.886 297.204 584.97C297.419 584.236 297.674 583.516 297.969 582.811C299.632 579.539 304.847 579.503 306.549 576.252C307.74 573.976 306.645 571.226 305.551 568.902L302.209 561.806C301.1 559.451 296.604 560.805 294.26 560.241C291.203 559.505 288.043 558.694 285.844 561.691Z" fill="#2F2E41"/>
<path d="M311.694 555.595C310.325 556.672 309.279 558.104 308.67 559.735C307.016 563.549 306.448 567.73 305.896 571.85C305.582 573.489 305.55 575.169 305.801 576.819C306.513 580.184 309.564 582.662 312.847 583.691C316.131 584.719 319.653 584.561 323.09 584.392C324.198 584.421 325.299 584.197 326.309 583.739C328.036 582.787 328.711 580.549 328.415 578.6C328.119 576.651 327.054 574.917 326.011 573.243C324.968 571.57 323.902 569.837 323.603 567.888C323.1 564.61 324.518 559.798 322.503 556.833C320.484 553.86 314.388 553.707 311.694 555.595Z" fill="#2F2E41"/>
<path d="M320.054 397.256C319.738 396.196 319.043 395.288 318.1 394.708C318.149 393.571 318.01 392.435 317.688 391.344C316.613 388.169 314.068 388.351 311.666 386.947C310.624 386.338 310.688 385.8 310.146 384.8C309.435 383.488 308.37 382.402 307.073 381.666C305.532 380.684 303.905 379.674 302.082 379.55C298.251 379.289 295.314 382.89 291.653 384.046C290.039 384.555 288.305 384.576 286.682 385.058C285.06 385.54 283.441 386.69 283.199 388.364C283.088 389.137 283.285 389.93 283.172 390.703C282.946 392.238 281.598 393.314 280.696 394.577C278.7 397.371 278.928 401.317 280.524 404.357C280.861 404.986 281.245 405.587 281.675 406.157C281.808 407.593 282.221 408.99 282.89 410.268C284.486 413.308 287.232 415.579 290.101 417.466C289.866 416.458 289.724 415.431 289.676 414.397C289.635 414.052 289.68 413.703 289.806 413.38C290.126 412.712 290.97 412.535 291.614 412.169C292.947 411.412 293.47 409.736 293.508 408.204C293.547 406.672 293.222 405.137 293.383 403.613C293.389 403.262 293.468 402.917 293.616 402.599C293.764 402.281 293.977 401.998 294.242 401.768C294.734 401.487 295.296 401.353 295.862 401.382C298.593 401.27 301.447 401.22 303.857 399.929C304.634 399.413 305.469 398.991 306.345 398.671C308.393 398.137 310.485 399.572 311.665 401.327C312.846 403.083 313.434 405.172 314.523 406.986C315.612 408.799 317.492 410.417 319.598 410.202C319.716 410.202 319.833 410.177 319.942 410.129C320.05 410.081 320.147 410.01 320.226 409.922C320.317 409.759 320.357 409.573 320.342 409.387L320.46 401.344C320.557 399.968 320.42 398.586 320.054 397.256Z" fill="#2F2E41"/>
<path d="M263.9 439.327C262.207 441.824 260.254 444.224 259.324 447.093C258.777 448.779 258.607 450.561 258.211 452.289C256.892 458.044 253.082 463.156 252.699 469.048C252.565 470.357 252.757 471.679 253.259 472.896C254.352 475.272 256.968 476.525 259.463 477.313C261.958 478.1 264.638 478.668 266.63 480.364C267.633 481.325 268.542 482.379 269.346 483.511C272.595 487.551 276.967 490.541 281.911 492.104C281.521 489.414 281.337 486.172 283.489 484.509C284.653 483.609 286.209 483.449 287.676 483.323L294.606 482.724C289.985 478.244 284.891 474.278 279.415 470.895C277.498 469.712 275.413 468.464 274.538 466.39C274.086 465.053 273.898 463.641 273.985 462.233C273.937 457.081 273.501 451.941 272.68 446.855C272.109 443.323 271.354 439.823 270.49 436.352C270.247 435.378 268.814 431.006 267.049 432.029C266.633 432.27 266.244 435.043 266.002 435.618C265.424 436.92 264.72 438.163 263.9 439.327V439.327Z" fill="#2F2E41"/>
<path d="M343.719 429.893L346.549 435.776C347.912 438.195 348.533 440.962 348.333 443.731L348.501 461.378C348.631 463.736 348.436 466.1 347.92 468.405C347.744 469.164 347.411 469.879 346.944 470.503C346.464 471.041 345.899 471.496 345.27 471.851C339.914 475.196 332.969 477.097 327.31 474.294C326.014 473.603 324.782 472.799 323.628 471.891C321.372 470.222 319.084 468.52 317.397 466.278C315.631 463.932 314.619 461.124 313.431 458.439C311.299 453.622 308.544 449.106 305.237 445.006C304.689 444.464 304.333 443.758 304.222 442.996C304.187 441.449 306.023 440.687 307.455 440.099C309.901 439.093 312.207 437.153 312.616 434.542C317.817 441.359 323.556 448.562 331.763 451.053C331.892 451.135 332.041 451.181 332.193 451.185C332.346 451.19 332.497 451.153 332.631 451.079C332.764 451.005 332.875 450.896 332.952 450.764C333.028 450.632 333.068 450.482 333.066 450.329C333.532 448.381 333.696 446.375 334.037 444.401C334.662 440.806 335.866 437.337 337.601 434.127C338.573 432.328 341.721 425.741 343.719 429.893Z" fill="#2F2E41"/>
<path opacity="0.1" d="M273.49 446.906C273.568 451.082 272.681 455.219 270.897 458.996C270.432 459.831 270.09 460.728 269.881 461.66C269.571 463.647 270.702 465.571 271.996 467.113C274.547 470.143 277.857 472.445 281.587 473.782" fill="black"/>
<path opacity="0.1" d="M334.944 443.386C334.527 444.507 334.906 445.746 335.227 446.898C336.159 450.239 336.593 453.699 336.518 457.166C336.531 457.227 336.529 457.29 336.512 457.35C336.495 457.409 336.464 457.464 336.42 457.508C336.377 457.553 336.323 457.586 336.264 457.604C336.205 457.623 336.141 457.626 336.08 457.614C334.715 457.698 333.152 457.706 332.226 456.7" fill="black"/>
<path opacity="0.1" d="M566.943 610.491C617.828 610.491 659.078 601.656 659.078 590.757C659.078 579.859 617.828 571.024 566.943 571.024C516.058 571.024 474.808 579.859 474.808 590.757C474.808 601.656 516.058 610.491 566.943 610.491Z" fill="black"/>
<path d="M613.011 414.618L606.43 421.196L613.011 427.773L619.592 414.618H613.011Z" fill="#A0616A"/>
<path d="M614.492 357.58C616.339 358.336 617.218 360.401 617.914 362.27L626.451 385.199L628.112 389.662C628.927 391.85 629.743 394.04 630.432 396.272C630.868 397.683 631.253 399.109 631.586 400.55C631.932 401.782 632.066 403.065 631.98 404.342C631.749 405.747 631.236 407.091 630.471 408.293C627.501 413.463 623.271 417.8 618.175 420.898C617.881 419.002 617.116 417.211 615.95 415.687C614.785 414.163 613.255 412.955 611.502 412.175L615.916 409.748C616.85 409.31 617.69 408.695 618.39 407.937C618.817 407.346 619.121 406.675 619.283 405.964C619.446 405.253 619.463 404.516 619.334 403.798C619.069 402.365 618.629 400.971 618.024 399.646C616.543 395.951 615.258 392.181 614.174 388.351C613.532 386.085 612.943 383.757 611.673 381.774C610.52 379.976 608.851 378.538 607.803 376.676C606.207 373.839 606.248 370.346 606.953 367.168C607.548 364.485 608.546 361.903 609.385 359.291C610.045 357.238 612.515 356.772 614.492 357.58Z" fill="#D0CDE1"/>
<path d="M573.79 296.322C570.396 297.467 567.32 300.147 566.625 303.66C566.303 305.289 566.501 306.982 566.229 308.62C565.601 312.418 562.618 315.319 559.866 318.013C557.115 320.707 554.274 323.838 554.073 327.683C553.853 331.893 556.908 335.837 556.379 340.02C555.765 344.879 550.63 348.028 549.361 352.758C548.513 355.917 549.552 359.32 551.261 362.109C554.517 367.424 560.083 371.032 566.011 372.967C571.938 374.901 578.251 375.308 584.486 375.373C592.078 375.453 600.321 374.801 606.025 369.793C609.283 366.907 611.33 362.896 611.754 358.565C612.295 352.764 609.873 346.77 611.544 341.188C612.596 337.675 615.233 334.467 614.839 330.821C614.454 327.257 611.34 324.73 609.203 321.851C607.208 319.162 605.997 315.987 604.811 312.856L600.751 302.146C599.953 300.04 599.076 297.826 597.298 296.444C593.968 293.857 588.615 294.365 584.721 294.899C581.109 295.394 577.264 295.149 573.79 296.322Z" fill="#2F2E41"/>
<path d="M576.931 331.619C576.931 331.619 577.328 343.534 576.136 344.726C574.944 345.917 580.905 353.86 580.905 353.86L591.633 353.463L597.196 349.094L592.428 342.74C592.428 342.74 590.441 332.413 592.031 330.03C593.62 327.647 576.931 331.619 576.931 331.619Z" fill="#A0616A"/>
<path opacity="0.1" d="M576.931 331.619C576.931 331.619 577.328 343.534 576.136 344.726C574.944 345.917 580.905 353.86 580.905 353.86L591.633 353.463L597.196 349.094L592.428 342.74C592.428 342.74 590.441 332.413 592.031 330.03C593.62 327.647 576.931 331.619 576.931 331.619Z" fill="black"/>
<path d="M552.095 423.563L558.85 438.655L564.017 432.3L553.685 418.797L552.095 423.563Z" fill="#A0616A"/>
<path d="M534.016 574.684L531.234 590.174L526.466 596.926L529.247 598.514L534.016 597.719L539.579 595.734L541.963 586.599L546.334 574.684H534.016Z" fill="#A0616A"/>
<path d="M584.878 565.152L583.288 587.394L587.262 590.571L593.62 585.01V568.727L584.878 565.152Z" fill="#A0616A"/>
<path d="M583.487 336.186C591.388 336.186 597.792 329.785 597.792 321.889C597.792 313.992 591.388 307.591 583.487 307.591C575.587 307.591 569.182 313.992 569.182 321.889C569.182 329.785 575.587 336.186 583.487 336.186Z" fill="#A0616A"/>
<path d="M594.525 341.119C594.097 340.913 593.629 340.802 593.153 340.793C592.677 340.783 592.205 340.877 591.769 341.066C590.901 341.451 590.059 341.889 589.247 342.38C587.159 343.466 584.792 343.896 582.456 343.615C582.181 343.594 581.912 343.525 581.662 343.411C581.396 343.246 581.152 343.049 580.935 342.824C580.087 342.136 579.006 341.804 577.919 341.898C576.831 341.991 575.823 342.504 575.106 343.326C574.686 343.849 574.398 344.474 573.939 344.964C572.752 346.233 570.792 346.285 569.054 346.282C565.45 346.181 561.846 346.511 558.32 347.265C554.778 348.029 551.516 349.757 548.894 352.257C548.179 352.93 547.609 353.742 547.22 354.643C546.741 355.879 546.804 357.267 546.373 358.521C545.893 359.916 544.83 361.062 544.399 362.474C544.075 363.537 544.12 364.721 543.578 365.692C545.9 367.701 547.868 370.38 550.19 372.389C551.727 373.719 553.337 375.158 553.915 377.107C554.175 378.308 554.29 379.536 554.259 380.765C554.546 386.64 557.734 391.969 561.299 396.649C562.276 398.037 563.446 399.279 564.773 400.338C566.574 401.565 568.621 402.386 570.77 402.745C574.83 403.575 579.008 403.571 583.151 403.53C587.434 403.487 591.791 403.397 595.861 402.067C597.933 401.489 599.796 400.332 601.233 398.733C602.907 396.677 603.561 393.704 605.845 392.358C606.398 392.105 606.922 391.792 607.407 391.425C607.872 390.921 608.201 390.306 608.364 389.64C609.163 387.145 609.603 384.55 609.672 381.932C609.613 380.361 609.72 378.787 609.99 377.238C610.385 375.873 610.96 374.567 611.701 373.355L616.435 364.774C616.819 364.077 616.719 363.051 616.754 362.255C616.719 361.108 616.367 359.993 615.736 359.034C612.666 353.611 607.843 349.391 602.059 347.067C601.603 346.912 601.169 346.7 600.767 346.435C600.294 346.037 599.893 345.56 599.584 345.024C598.328 343.133 596.794 341.001 594.525 341.119Z" fill="#D0CDE1"/>
<path d="M535.533 387.848C534.6 390.117 533.914 392.479 533.489 394.895C533.032 398.232 533.57 401.63 535.036 404.662C537.587 409.91 542.609 413.47 546.154 418.106C549.447 422.413 551.408 427.576 554.26 432.187C553.762 431.013 554.366 429.654 555.18 428.673C555.994 427.691 557.034 426.877 557.631 425.751C558.037 424.878 558.293 423.943 558.386 422.986C558.812 420.126 559.042 417.019 557.583 414.523C556.485 412.644 554.589 411.396 553.087 409.82C551.586 408.217 550.482 406.284 549.866 404.176C549.249 402.068 549.136 399.845 549.537 397.686C549.826 396.199 550.357 394.772 550.755 393.311C551.248 391.347 551.621 389.356 551.872 387.347L553.662 375.063C554.138 371.795 554.54 368.18 552.689 365.445C552.328 364.873 551.828 364.4 551.236 364.072C550.747 363.848 550.225 363.701 549.691 363.637C547.744 363.319 545.106 362.466 544.155 364.552C543.007 367.069 542.208 369.813 541.247 372.409L535.533 387.848Z" fill="#D0CDE1"/>
<path d="M603.731 394.57C603.731 394.57 580.109 399.137 574.546 399.137H564.612C564.612 399.137 561.036 405.492 561.036 411.847C561.036 418.201 537.592 507.166 537.592 507.166C537.592 507.166 515.339 580.245 539.976 580.642C564.612 581.039 580.109 582.23 580.507 573.89C580.904 565.549 583.288 457.918 583.288 457.918L586.997 513.262C587.994 526.963 586.93 540.736 583.839 554.121C582.06 561.625 582.336 569.852 591.236 571.507C608.322 574.684 629.78 571.904 629.78 565.947C629.78 559.989 618.653 427.733 618.653 427.733C618.653 427.733 613.09 408.272 609.912 406.683C606.733 405.095 603.731 394.57 603.731 394.57Z" fill="#2F2E41"/>
<path d="M529.644 596.131L538.386 592.954L544.347 577.861L550.705 577.067C550.705 577.067 547.128 584.613 545.141 585.805C543.155 586.996 539.976 596.925 539.976 596.925C539.976 596.925 541.565 600.897 534.015 602.486C526.465 604.074 520.902 605.266 520.902 605.266C520.902 605.266 520.108 603.677 523.684 599.706C527.26 595.734 531.436 589.048 531.436 589.048L529.644 596.131Z" fill="#2F2E41"/>
<path d="M583.289 577.862L581.699 589.776C581.699 589.776 586.07 596.131 587.262 596.131C588.454 596.131 594.812 590.571 594.812 590.571C594.812 590.571 594.415 584.613 594.812 583.025C595.21 581.436 596.004 573.89 594.812 573.493C593.62 573.095 593.62 582.344 593.62 582.344L588.454 587.791L583.474 584.806L583.289 577.862Z" fill="#2F2E41"/>
<path d="M584.679 321.889C593.238 321.889 600.176 318.154 600.176 313.548C600.176 308.942 593.238 305.208 584.679 305.208C576.12 305.208 569.182 308.942 569.182 313.548C569.182 318.154 576.12 321.889 584.679 321.889Z" fill="#2F2E41"/>
<path d="M21 477.223C21 524.011 50.3665 561.87 86.6579 561.87Z" fill="#3F3D56"/>
<path d="M86.6577 561.871C86.6577 514.557 119.429 476.272 159.928 476.272Z" fill="#3FAD48"/>
<path d="M44.7891 481.465C44.7891 525.908 63.5155 561.87 86.6578 561.87Z" fill="#CAEAA8"/>
<path d="M86.6577 561.87C86.6577 501.415 124.536 452.495 171.347 452.495Z" fill="#3F3D56"/>
<path d="M72.8452 562.467C72.8452 562.467 82.1566 562.181 84.9628 560.183C87.769 558.186 99.286 555.801 99.9822 559.004C100.678 562.208 113.975 574.936 103.463 575.02C92.9504 575.105 79.0366 573.384 76.2358 571.678C73.435 569.973 72.8452 562.467 72.8452 562.467Z" fill="#A8A8A8"/>
<path opacity="0.2" d="M103.651 573.905C93.138 573.99 79.2242 572.269 76.4234 570.563C74.2904 569.265 73.4405 564.605 73.1561 562.455C72.9591 562.464 72.8452 562.467 72.8452 562.467C72.8452 562.467 73.435 569.973 76.2358 571.679C79.0366 573.384 92.9505 575.105 103.463 575.02C106.497 574.996 107.546 573.917 107.488 572.319C107.067 573.284 105.909 573.887 103.651 573.905Z" fill="black"/>
</g>
<defs>
<clipPath id="clip0_104_232">
<rect width="758" height="554" fill="white" transform="translate(21 123)"/>
</clipPath>
</defs>
</svg>
