<svg width="450" height="450" viewBox="0 0 450 450" fill="none" xmlns="http://www.w3.org/2000/svg">
<g clip-path="url(#clip0_86_370)">
<path d="M130.649 273.633H129.296V289.846H130.649V273.633Z" fill="#F2F2F2"/>
<path d="M136.209 274.084H123.286C122.126 274.084 121.183 273.141 121.183 271.983V267.178C121.183 266.019 122.126 265.077 123.286 265.077H136.209C137.368 265.077 138.312 266.019 138.312 267.178V271.983C138.312 273.141 137.368 274.084 136.209 274.084ZM128.095 265.978C124.776 265.978 122.085 268.666 122.085 271.983C122.085 272.646 122.623 273.183 123.286 273.183H136.209C136.872 273.183 137.41 272.646 137.41 271.983V267.178C137.41 266.515 136.872 265.978 136.209 265.978H128.095Z" fill="#F2F2F2"/>
<path d="M207.631 312.742H206.279V328.955H207.631V312.742Z" fill="#F2F2F2"/>
<path d="M213.191 313.193H200.268C199.109 313.193 198.166 312.25 198.166 311.092V306.287C198.166 305.128 199.109 304.186 200.268 304.186H213.191C214.351 304.186 215.294 305.128 215.294 306.287V311.092C215.294 312.25 214.351 313.193 213.191 313.193ZM205.078 305.087C201.758 305.087 199.067 307.775 199.067 311.092C199.067 311.755 199.605 312.292 200.269 312.292H213.191C213.855 312.292 214.392 311.755 214.392 311.092V306.287C214.392 305.624 213.855 305.087 213.191 305.087H205.078V305.087Z" fill="#F2F2F2"/>
<path d="M347.166 362.024L341.961 362.023L339.485 341.964L347.168 341.965L347.166 362.024Z" fill="#FFB6B6"/>
<path d="M347.349 367.449L331.343 367.448V367.246C331.343 363.808 334.133 361.022 337.573 361.021H337.574L340.497 358.805L345.952 361.022L347.35 361.022L347.349 367.449V367.449Z" fill="#2F2E41"/>
<path d="M321.494 362.024L316.289 362.023L313.813 341.964L321.495 341.965L321.494 362.024Z" fill="#FFB6B6"/>
<path d="M321.677 367.449L305.671 367.448V367.246C305.671 363.808 308.46 361.022 311.901 361.021H311.901L314.825 358.805L320.28 361.022L321.677 361.022L321.677 367.449V367.449Z" fill="#2F2E41"/>
<path d="M324.245 248.522L359.544 246.919L363.074 267.438L360.827 274.492L358.902 282.507L353.126 310.721L348.312 352.401H338.096L337.883 312.805L340.28 309.535V307.354L338.642 278.5L327.935 306.393L328.898 310.24L326.01 317.294L322.542 352.401H312.99L310.927 304.469L318.629 274.973V269.522L319.912 266.957L324.245 248.522Z" fill="#2F2E41"/>
<path d="M347.51 182.635H334.643L333.07 189.689L320.555 195.46L325.047 228.163L322.48 238.743V242.911L321.196 246.759L320.555 259.034L364.518 262.148L361.63 255.736L362.593 251.888L361.63 249.644L359.063 230.728L360.988 194.178L351.04 190.651L347.51 182.635Z" fill="#3F3D56"/>
<path d="M281.063 243.386L290.279 235.727L295.393 240.377L285.36 248.128C285.287 248.508 285.159 248.884 284.969 249.244C283.937 251.203 281.51 251.955 279.549 250.923C277.589 249.892 276.836 247.467 277.869 245.508C278.527 244.259 279.753 243.504 281.063 243.386V243.386Z" fill="#FFB6B6"/>
<path d="M328.709 198.107L323.812 196.138C322.293 195.21 320.339 195.41 319.047 196.632C316.585 198.962 312.957 202.842 312.633 205.743C312.633 205.743 300.942 217.834 300.79 220.119C300.639 222.403 284.604 239.658 284.604 239.658L292.074 245.204L322.287 216.35L325.008 201.733C326.287 199.87 330.639 199.285 328.709 198.107L328.709 198.107Z" fill="#3F3D56"/>
<path d="M341.543 181.513C347.619 181.513 352.545 176.592 352.545 170.521C352.545 164.451 347.619 159.53 341.543 159.53C335.467 159.53 330.542 164.451 330.542 170.521C330.542 176.592 335.467 181.513 341.543 181.513Z" fill="#FFB6B6"/>
<path d="M353.305 175.717C353.05 175.404 352.946 175.013 352.691 174.7C352.704 175.215 352.698 175.736 352.789 176.238C352.802 176.317 352.815 176.414 352.835 176.538C352.841 176.564 352.848 176.577 352.855 176.603C352.855 176.616 352.861 176.629 352.861 176.642C352.085 178.109 351.197 179.015 350.558 179.269C348.979 179.902 346.846 180.443 346.709 180.547C346.859 180.312 352.457 171.565 350.558 170.933C348.633 170.294 348.797 171.487 348.797 171.487C347.92 167.896 346.159 166.419 343.499 167.087C340.028 166.963 336.629 165.907 334.868 169.551C334.666 168.71 334.359 167.889 334 167.139C333.928 167.941 333.928 168.834 333.667 169.616C331.201 171.765 329.724 171.398 328.788 170.007C328.788 169.727 328.794 169.44 328.814 169.16C328.833 168.971 328.853 168.795 328.885 168.612C328.99 168.084 329.401 167.778 329.603 167.315C329.153 167.563 328.683 167.797 328.279 168.11C328.22 168.156 328.135 168.214 328.037 168.286C327.783 166.624 326.909 161.051 329.701 162.915C332.493 164.779 330.986 160.992 330.986 160.992H334.333C334.333 160.992 334.907 160.236 335.925 159.434C336.107 159.487 336.277 159.539 336.447 159.604C336.949 159.799 335.331 157.981 335.755 158.261C335.592 157.779 337.288 159.552 337.053 159.096C337.014 159.017 337.132 157.746 337.06 157.609C338.926 156.482 347.877 156.476 350.76 158.913C354.387 161.978 349.796 160.414 354.407 166.441C356.246 168.845 356.121 171.102 353.305 175.717V175.717Z" fill="#2F2E41"/>
<path d="M262.072 368.797H77.3719C72.7153 368.797 68.9268 365.011 68.9268 360.359V158.224C68.9268 153.571 72.7153 149.786 77.3719 149.786H262.072C266.729 149.786 270.517 153.571 270.517 158.224V360.359C270.517 365.011 266.729 368.797 262.072 368.797ZM124.982 151.09C94.744 151.09 70.2316 175.58 70.2316 205.791V360.359C70.2316 364.299 73.4285 367.493 77.3722 367.493H262.072C266.016 367.493 269.213 364.299 269.213 360.359V158.224C269.213 154.284 266.016 151.09 262.072 151.09H124.982V151.09Z" fill="#F2F2F2"/>
<path d="M371.023 368.797H290.054C285.397 368.797 281.608 365.011 281.608 360.359V158.224C281.608 153.571 285.397 149.786 290.054 149.786H371.023C375.679 149.786 379.468 153.571 379.468 158.224V360.359C379.468 365.011 375.679 368.797 371.023 368.797ZM290.054 151.09C286.116 151.09 282.913 154.29 282.913 158.224V360.359C282.913 364.293 286.116 367.493 290.054 367.493H371.023C374.96 367.493 378.163 364.293 378.163 360.359V158.224C378.163 154.29 374.96 151.09 371.023 151.09H290.054V151.09Z" fill="#F2F2F2"/>
<path d="M407.46 82H43.5464C38.836 82 35 85.8261 35 90.5323V212.298C35 216.809 38.5294 220.524 42.9723 220.811C43.1615 220.831 43.3507 220.837 43.5464 220.837H69.0682V219.533H43.5464C43.3507 219.533 43.1615 219.527 42.9723 219.507C39.2471 219.214 36.3048 216.092 36.3048 212.298V90.5323C36.3048 86.5431 39.5537 83.3036 43.5464 83.3036H407.46C411.453 83.3036 414.695 86.5431 414.695 90.5323V212.298C414.695 216.287 411.453 219.533 407.46 219.533H378.304V220.837H407.46C412.17 220.837 416 217.004 416 212.298V90.5323C416 85.8261 412.17 82 407.46 82Z" fill="#F2F2F2"/>
<path d="M161.433 287.57H147.348C147.348 287.407 147.361 287.244 147.387 287.068C147.752 284.304 150.988 280.23 152.932 279.383C153.304 279.227 153.63 279.181 153.878 279.292C154.198 279.429 154.394 279.826 154.394 280.537C154.394 282.212 155.45 283.066 156.749 283.698C156.429 284.193 156.018 284.591 155.477 284.721C156.553 284.95 158.21 285.243 159.502 284.924C160.454 285.419 161.205 286.038 161.387 287.068C161.42 287.224 161.433 287.394 161.433 287.57V287.57Z" fill="#FF9B63"/>
<path d="M153.308 279.455C153.906 279.455 154.391 278.971 154.391 278.373C154.391 277.775 153.906 277.291 153.308 277.291C152.71 277.291 152.225 277.775 152.225 278.373C152.225 278.971 152.71 279.455 153.308 279.455Z" fill="#3F3D56"/>
<path d="M154.391 295.542C159.075 295.542 162.872 291.748 162.872 287.068H145.91C145.91 291.748 149.707 295.542 154.391 295.542Z" fill="#E6E6E6"/>
<path d="M196.662 313.643H182.577C182.577 313.48 182.59 313.317 182.616 313.141C182.779 311.902 183.523 310.403 184.463 309.047C184.913 309.106 185.317 309.262 185.624 309.575C185.48 309.178 185.311 308.702 185.089 308.206C186.113 306.903 187.274 305.84 188.162 305.456C188.534 305.299 188.86 305.254 189.108 305.365C189.427 305.501 189.623 305.899 189.623 306.61C189.623 310.742 196.03 309.856 196.617 313.141C196.649 313.297 196.662 313.467 196.662 313.643V313.643Z" fill="#FFBC0F"/>
<path d="M188.537 305.528C189.135 305.528 189.62 305.043 189.62 304.446C189.62 303.848 189.135 303.364 188.537 303.364C187.939 303.364 187.454 303.848 187.454 304.446C187.454 305.043 187.939 305.528 188.537 305.528Z" fill="#3F3D56"/>
<path d="M189.62 321.614C194.304 321.614 198.101 317.821 198.101 313.141H181.139C181.139 317.821 184.936 321.614 189.62 321.614Z" fill="#E6E6E6"/>
<path d="M188.147 278.763C184.637 278.763 181.792 281.606 181.792 285.113H194.503C194.503 281.606 191.657 278.763 188.147 278.763H188.147Z" fill="#6C63FF"/>
<path d="M194.503 283.157H181.794C181.794 279.65 184.639 276.808 188.149 276.808C189.199 276.808 190.191 277.063 191.058 277.512C191.024 277.592 190.989 277.673 190.952 277.754C190.679 278.357 191.114 279.051 191.776 279.028C191.993 279.021 192.207 279.01 192.416 278.995L193.227 279.338C194.026 280.404 194.503 281.726 194.503 283.157H194.503Z" fill="#FFBC0F"/>
<path d="M188.316 292.283C193 292.283 196.797 288.489 196.797 283.809H179.834C179.834 288.489 183.632 292.283 188.316 292.283Z" fill="#E6E6E6"/>
<path d="M323.194 221.403C319.683 221.403 316.838 224.246 316.838 227.753H329.549C329.549 224.246 326.704 221.403 323.194 221.403H323.194Z" fill="#6C63FF"/>
<path d="M329.55 225.797H316.841C316.841 222.29 319.685 219.448 323.195 219.448C324.246 219.448 325.237 219.703 326.105 220.152C326.07 220.233 326.035 220.313 325.999 220.394C325.726 220.997 326.16 221.691 326.823 221.668C327.039 221.661 327.253 221.65 327.463 221.635L328.273 221.978C329.072 223.044 329.55 224.366 329.55 225.797V225.797Z" fill="#FFBC0F"/>
<path d="M323.362 234.923C328.046 234.923 331.843 231.129 331.843 226.449H314.881C314.881 231.129 318.678 234.923 323.362 234.923Z" fill="#E6E6E6"/>
<path d="M126.474 206.519C130.964 206.519 134.605 202.959 134.605 198.567C134.605 194.174 130.964 190.614 126.474 190.614C121.983 190.614 118.343 194.174 118.343 198.567C118.343 202.959 121.983 206.519 126.474 206.519Z" fill="#FF9B63"/>
<path d="M191.657 195.846H147.891C146.389 195.846 145.167 194.625 145.167 193.125C145.167 191.625 146.389 190.405 147.891 190.405H191.657C193.158 190.405 194.38 191.625 194.38 193.125C194.38 194.625 193.158 195.846 191.657 195.846Z" fill="#F2F2F2"/>
<path d="M225.812 205.054H147.891C146.389 205.054 145.167 203.834 145.167 202.334C145.167 200.833 146.389 199.613 147.891 199.613H225.812C227.313 199.613 228.535 200.833 228.535 202.334C228.535 203.834 227.313 205.054 225.812 205.054Z" fill="#F2F2F2"/>
<path d="M191.657 225.178H147.891C146.389 225.178 145.167 223.957 145.167 222.457C145.167 220.957 146.389 219.736 147.891 219.736H191.657C193.158 219.736 194.38 220.957 194.38 222.457C194.38 223.957 193.158 225.178 191.657 225.178Z" fill="#F2F2F2"/>
<path d="M225.812 234.386H147.891C146.389 234.386 145.167 233.165 145.167 231.665C145.167 230.165 146.389 228.945 147.891 228.945H225.812C227.313 228.945 228.535 230.165 228.535 231.665C228.535 233.165 227.313 234.386 225.812 234.386Z" fill="#F2F2F2"/>
<path d="M123.864 123.738C128.355 123.738 131.995 120.178 131.995 115.786C131.995 111.394 128.355 107.833 123.864 107.833C119.374 107.833 115.733 111.394 115.733 115.786C115.733 120.178 119.374 123.738 123.864 123.738Z" fill="#FF9B63"/>
<path d="M189.047 113.065H145.281C143.78 113.065 142.558 111.845 142.558 110.345C142.558 108.844 143.78 107.624 145.281 107.624H189.047C190.549 107.624 191.77 108.844 191.77 110.345C191.77 111.845 190.549 113.065 189.047 113.065Z" fill="#F2F2F2"/>
<path d="M223.202 122.273H145.281C143.78 122.273 142.558 121.053 142.558 119.553C142.558 118.053 143.78 116.832 145.281 116.832H223.202C224.704 116.832 225.925 118.053 225.925 119.553C225.925 121.053 224.704 122.273 223.202 122.273Z" fill="#F2F2F2"/>
<path d="M221.874 368.741L220.629 368.349L229.067 341.619C229.781 339.358 223.307 369.805 221.904 367.893C220.501 365.981 224.413 332.043 222.04 332.043H117.629C115.397 332.043 116.969 365.509 115.563 367.242C114.158 368.974 109.959 338.747 110.42 340.929L115.549 365.151L114.273 365.421L109.144 341.198C108.6 338.63 109.237 335.988 110.892 333.949C112.546 331.909 115.002 330.74 117.629 330.74H222.04C224.833 330.74 227.383 332.031 229.034 334.281C230.686 336.532 231.151 339.35 230.311 342.011L221.874 368.741V368.741Z" fill="#F2F2F2"/>
<path d="M187.643 323.293L188.902 323.691L210.372 330.456C213.034 331.291 215.852 330.828 218.109 329.179C220.36 327.53 221.652 324.981 221.652 322.191L221.652 296.744C221.652 294.118 220.484 291.667 218.442 290.011C216.4 288.356 213.752 287.723 211.181 288.264L188.236 293.114L186.938 293.388L186.951 293.446L187.212 294.665L187.421 294.619L188.699 294.352L211.455 289.542C213.641 289.079 215.885 289.62 217.62 291.021C219.356 292.429 220.347 294.515 220.347 296.744L220.347 322.191C220.347 324.564 219.251 326.728 217.333 328.129C215.422 329.531 213.027 329.922 210.763 329.211L189.026 322.367L187.727 321.957L187.643 323.293H187.643Z" fill="#F2F2F2"/>
<path d="M155.192 295.645L153.933 295.247L132.463 288.482C129.801 287.647 126.982 288.11 124.725 289.759C122.474 291.408 121.183 293.957 121.183 296.747L121.183 322.194C121.183 324.82 122.35 327.271 124.392 328.927C126.434 330.582 129.083 331.215 131.654 330.674L154.598 325.824L155.897 325.55L155.884 325.492L155.623 324.273L155.414 324.318L154.135 324.586L131.38 329.396C129.194 329.859 126.95 329.318 125.214 327.916C123.479 326.509 122.487 324.423 122.487 322.194L122.487 296.747C122.487 294.374 123.583 292.21 125.502 290.809C127.413 289.407 129.807 289.016 132.071 289.727L153.809 296.571L155.107 296.981L155.192 295.645Z" fill="#F2F2F2"/>
<path d="M325.09 229.325L336.811 226.812L339.182 233.301L326.695 235.517C326.454 235.82 326.166 236.094 325.831 236.325C324.006 237.582 321.508 237.123 320.25 235.301C318.992 233.478 319.451 230.982 321.275 229.725C322.438 228.923 323.875 228.822 325.09 229.325V229.325Z" fill="#FFB6B6"/>
<path d="M360.459 194.62H360.459C363.249 193.977 366.08 195.545 366.991 198.257C368.42 202.508 369.922 208.698 368.369 212.773L367.085 223.354L365.481 229.125V229.951L331.144 234.896L329.54 226.56L351.682 223.033L352.324 219.186L352.922 218.587L353.745 214.216L356.212 199.147C356.578 196.917 358.256 195.128 360.459 194.62H360.459Z" fill="#3F3D56"/>
<path d="M154.222 309.398C150.712 309.398 147.867 312.241 147.867 315.748H160.578C160.578 312.241 157.733 309.398 154.222 309.398H154.222Z" fill="#6C63FF"/>
<path d="M160.578 313.793H147.87C147.87 310.286 150.714 307.444 154.224 307.444C155.274 307.444 156.266 307.698 157.134 308.148C157.099 308.228 157.064 308.309 157.028 308.389C156.754 308.993 157.189 309.687 157.851 309.664C158.068 309.656 158.282 309.645 158.491 309.63L159.302 309.973C160.101 311.04 160.578 312.361 160.578 313.793H160.578Z" fill="#FF9B63"/>
<path d="M154.391 322.918C159.075 322.918 162.872 319.124 162.872 314.444H145.91C145.91 319.124 149.707 322.918 154.391 322.918Z" fill="#E6E6E6"/>
<path d="M150.603 314.146C151.201 314.146 151.686 313.661 151.686 313.064C151.686 312.466 151.201 311.982 150.603 311.982C150.004 311.982 149.52 312.466 149.52 313.064C149.52 313.661 150.004 314.146 150.603 314.146Z" fill="#3F3D56"/>
<path d="M193.661 283.51C194.259 283.51 194.744 283.026 194.744 282.428C194.744 281.831 194.259 281.346 193.661 281.346C193.063 281.346 192.578 281.831 192.578 282.428C192.578 283.026 193.063 283.51 193.661 283.51Z" fill="#3F3D56"/>
<path d="M198.818 319.83H179.246V323.089H198.818V319.83Z" fill="#F2F2F2"/>
<path d="M164.241 321.785H144.669V325.044H164.241V321.785Z" fill="#F2F2F2"/>
<path d="M164.241 294.409H144.669V297.668H164.241V294.409Z" fill="#F2F2F2"/>
<path d="M198.818 291.801H179.246V295.06H198.818V291.801Z" fill="#F2F2F2"/>
<path d="M126.245 234.132C130.036 234.132 133.109 231.061 133.109 227.274C133.109 223.487 130.036 220.417 126.245 220.417C122.455 220.417 119.382 223.487 119.382 227.274C119.382 231.061 122.455 234.132 126.245 234.132Z" fill="white"/>
<path d="M126.245 234.601C122.202 234.601 118.912 231.314 118.912 227.274C118.912 223.234 122.202 219.948 126.245 219.948C130.289 219.948 133.578 223.234 133.578 227.274C133.578 231.314 130.289 234.601 126.245 234.601ZM126.245 220.694C122.614 220.694 119.66 223.646 119.66 227.274C119.66 230.902 122.614 233.854 126.245 233.854C129.877 233.854 132.831 230.902 132.831 227.274C132.831 223.646 129.877 220.694 126.245 220.694Z" fill="#3F3D56"/>
<path d="M125.309 230.843C125.069 230.843 124.843 230.73 124.698 230.538L122.826 228.043C122.573 227.706 122.641 227.228 122.978 226.976C123.316 226.723 123.794 226.791 124.047 227.128L125.272 228.76L128.419 224.045C128.653 223.694 129.127 223.6 129.477 223.833C129.828 224.067 129.923 224.54 129.689 224.891L125.944 230.503C125.807 230.709 125.578 230.836 125.33 230.843L125.309 230.843V230.843Z" fill="#FFBC0F"/>
<path d="M189.369 269.619C191.102 265.711 191.52 261.296 190.589 257.126C189.681 253.065 187.415 249.372 184.276 246.646C182.524 245.125 180.511 243.906 178.34 243.084C177.821 242.887 177.411 243.658 177.937 243.857C181.632 245.257 184.842 247.806 187.047 251.083C189.307 254.442 190.377 258.468 190.182 262.505C190.071 264.813 189.532 267.103 188.595 269.216C188.368 269.727 189.141 270.133 189.369 269.619V269.619Z" fill="#E6E6E6"/>
<path d="M180.881 240.486L173.395 240.142C173.123 240.13 172.895 240.459 172.994 240.709L176.023 248.38C176.228 248.899 177.063 248.642 176.856 248.118L173.827 240.447L173.426 241.014L180.912 241.358C181.474 241.384 181.438 240.511 180.881 240.486H180.881Z" fill="#E6E6E6"/>
<path d="M303.426 133.174C302.618 128.977 300.439 125.113 297.293 122.219C294.228 119.401 290.258 117.66 286.124 117.211C283.816 116.96 281.468 117.107 279.215 117.669C278.676 117.804 278.78 118.67 279.325 118.535C283.159 117.578 287.251 117.841 290.933 119.275C294.708 120.745 297.886 123.442 300.031 126.868C301.258 128.827 302.123 131.015 302.56 133.284C302.666 133.833 303.532 133.727 303.426 133.174Z" fill="#E6E6E6"/>
<path d="M279.817 114.087L273.474 118.072C273.243 118.217 273.244 118.617 273.468 118.766L280.337 123.339C280.801 123.649 281.34 122.962 280.871 122.65L274.003 118.077L273.997 118.771L280.341 114.786C280.817 114.486 280.29 113.791 279.817 114.087V114.087Z" fill="#E6E6E6"/>
</g>
<defs>
<clipPath id="clip0_86_370">
<rect width="381" height="286.797" fill="white" transform="translate(35 82)"/>
</clipPath>
</defs>
</svg>
