<svg width="450" height="450" viewBox="0 0 450 450" fill="none" xmlns="http://www.w3.org/2000/svg">
<g clip-path="url(#clip0_86_366)">
<path d="M204.981 376.959L197.768 376.958L194.336 349.154L204.982 349.155L204.981 376.959Z" fill="#A0616A"/>
<path d="M180.268 376.796C180.044 377.174 179.925 378.394 179.925 378.833C179.925 380.184 181.021 381.28 182.373 381.28H204.711C205.633 381.28 206.381 380.532 206.381 379.611V378.681C206.381 378.681 207.486 375.888 205.211 372.445C205.211 372.445 202.384 375.141 198.158 370.918L196.912 368.663L187.893 375.255L182.894 375.869C181.801 376.004 180.831 375.849 180.268 376.796H180.268V376.796Z" fill="#2F2E41"/>
<path d="M172.663 376.959L165.45 376.958L162.019 349.154L172.664 349.155L172.663 376.959Z" fill="#A0616A"/>
<path d="M147.951 376.796C147.726 377.174 147.607 378.394 147.607 378.833C147.607 380.184 148.703 381.28 150.056 381.28H172.393C173.316 381.28 174.063 380.532 174.063 379.611V378.681C174.063 378.681 175.168 375.888 172.893 372.445C172.893 372.445 170.066 375.141 165.841 370.918L164.595 368.663L155.576 375.255L150.577 375.869C149.483 376.004 148.513 375.849 147.951 376.796H147.951V376.796Z" fill="#2F2E41"/>
<path d="M205.6 202.525L212.315 219.722L207.069 357.09H192.379L179.158 233.145L176.01 357.51L161.74 357.09L146.211 219.093L156.494 206.72L205.6 202.525Z" fill="#2F2E41"/>
<path d="M173.912 105.005L191.54 103.746L196.996 112.555L213.365 117.168L207.279 159.742L213.785 223.288C213.785 223.288 190.281 219.932 188.602 226.643C186.923 233.354 145.792 219.932 145.792 219.932L159.852 176.52L158.593 142.545L154.815 122.831L172.023 114.861L173.912 105.005V105.005Z" fill="#E6E6E6"/>
<path d="M165.938 117.588C165.938 117.588 151.891 117.378 149.995 123.25C148.1 129.123 141.804 169.809 141.804 169.809L136.978 187.635L158.593 176.939L153.976 169.82L169.085 140.867L165.938 117.588H165.938Z" fill="#E6E6E6"/>
<path d="M174.531 182.811C176.854 182.814 179.013 181.476 179.916 179.338C180.599 177.72 180.534 176.169 180.023 174.838C180.188 174.77 180.351 174.699 180.519 174.639C180.272 174.539 180.031 174.426 179.791 174.312C178.955 172.646 177.35 171.436 175.44 171.143C173.073 168.609 171.619 165.215 171.604 161.479C171.572 153.779 177.822 147.348 185.525 147.163C185.585 147.161 185.646 147.16 185.706 147.16C189.156 147.12 192.284 149.048 194.032 152.02C195.051 153.754 196.936 154.918 199.095 154.918C200.747 154.918 202.238 154.236 203.304 153.137C205.626 150.744 208.533 148.963 211.824 148.417C213.985 148.058 216.221 147.923 218.509 148.037C234.173 148.815 247.649 162.689 247.984 178.358C248.356 195.811 234.311 210.075 216.932 210.075C207.889 210.075 199.753 206.211 194.079 200.046C191.56 197.309 188.03 195.776 184.309 195.814C184.271 195.814 184.233 195.814 184.195 195.814C178.168 195.814 173.282 190.932 173.282 184.909C173.282 184.575 173.299 184.245 173.33 183.919C173.388 183.31 173.919 182.811 174.531 182.811L174.531 182.811Z" fill="#FF9B63"/>
<path d="M377.527 298.951C376.765 297.666 373.467 299.042 372.861 297.876C372.256 296.714 375.321 294.944 377.072 290.9C377.387 290.171 379.377 285.576 377.904 284.158C375.112 281.47 362.337 292.562 357.866 288.932C356.885 288.135 356.199 286.545 353.23 283.963C352.048 282.936 351.334 282.473 350.643 282.645C349.662 282.89 349.584 284.202 348.532 286.782C346.955 290.651 346.021 290.417 345.102 293.504C344.42 295.795 344.576 297.127 343.773 297.387C342.637 297.754 341.591 295.324 340.151 295.541C338.682 295.764 337.793 298.593 337.513 300.712C336.986 304.688 338.447 307.312 339.257 310.071C340.137 313.069 340.66 317.629 338.627 324.083L318.511 380.724C322.952 369.102 335.811 337.241 341.214 325.401C342.774 321.984 344.496 318.517 348.033 317.149C351.437 315.831 356.113 316.618 362.074 315.183C362.771 315.015 364.703 314.524 364.946 313.388C365.147 312.449 364.01 311.925 364.185 311.046C364.419 309.866 366.654 309.852 369.4 308.491C371.337 307.532 372.543 306.391 373.58 305.409C373.893 305.113 378.542 300.661 377.527 298.951V298.951Z" fill="#F2F2F2"/>
<path d="M298.385 328.769C297.534 328.772 297.258 330.787 296.51 330.748C295.765 330.709 295.78 328.695 294.299 326.67C294.032 326.305 292.35 324.003 291.228 324.316C289.103 324.91 290.864 334.377 287.791 335.522C287.117 335.774 286.138 335.651 284.013 336.363C283.168 336.646 282.734 336.862 282.62 337.251C282.457 337.803 283.079 338.22 284.042 339.48C285.487 341.37 285.103 341.76 286.354 343.102C287.282 344.098 287.982 344.406 287.878 344.874C287.73 345.538 286.235 345.349 285.926 346.118C285.611 346.903 286.745 348.155 287.704 348.904C289.505 350.31 291.215 350.35 292.804 350.749C294.53 351.182 296.92 352.242 299.504 355.101L321.517 381.31C317.09 375.779 305.153 360.279 300.898 354.212C299.669 352.461 298.463 350.616 298.812 348.487C299.147 346.437 300.883 344.37 301.898 341.032C302.016 340.642 302.333 339.553 301.845 339.106C301.442 338.736 300.857 339.143 300.475 338.803C299.964 338.348 300.601 337.248 300.725 335.508C300.813 334.282 300.6 333.361 300.418 332.569C300.363 332.33 299.518 328.765 298.385 328.769V328.769Z" fill="#F2F2F2"/>
<path d="M315.361 332.577L314.848 328.004L315.082 327.657C316.166 326.054 316.719 324.488 316.725 323.002C316.726 322.765 316.715 322.529 316.704 322.288C316.66 321.334 316.605 320.148 317.224 318.766C317.571 317.995 318.545 316.211 320.01 316.432C320.405 316.487 320.703 316.668 320.929 316.88C320.963 316.827 320.997 316.774 321.033 316.717C321.49 316.021 321.851 315.723 322.199 315.436C322.466 315.215 322.743 314.987 323.176 314.449C323.366 314.212 323.514 314.005 323.639 313.83C324.018 313.302 324.513 312.673 325.386 312.684C326.318 312.728 326.806 313.499 327.13 314.009C327.708 314.919 327.97 315.575 328.143 316.01C328.206 316.169 328.278 316.348 328.315 316.403C328.615 316.845 331.058 316.432 331.979 316.282C334.046 315.937 335.835 315.639 336.572 316.942C337.1 317.874 336.707 319.106 335.371 320.703C334.954 321.2 334.511 321.577 334.118 321.873C334.444 322.068 334.735 322.366 334.853 322.834C335.132 323.943 334.178 325.053 332.02 326.14C331.485 326.411 330.763 326.774 329.752 326.948C329.276 327.03 328.847 327.05 328.48 327.061C328.473 327.273 328.423 327.502 328.294 327.739C327.915 328.434 327.126 328.766 325.937 328.686C324.629 328.618 323.551 328.368 322.601 328.149C321.771 327.96 321.057 327.798 320.495 327.836C319.454 327.92 318.652 328.752 317.711 329.832L315.361 332.577V332.577Z" fill="#F2F2F2"/>
<path d="M317.739 305.346L313.442 307.002L313.047 306.863C311.22 306.222 309.565 306.085 308.124 306.456C307.895 306.515 307.67 306.585 307.439 306.657C306.527 306.942 305.393 307.296 303.898 307.049C303.064 306.909 301.09 306.419 300.932 304.947C300.885 304.552 300.985 304.217 301.133 303.945C301.073 303.926 301.013 303.906 300.948 303.886C300.159 303.621 299.779 303.347 299.413 303.084C299.131 302.881 298.841 302.672 298.21 302.39C297.933 302.266 297.694 302.176 297.494 302.099C296.887 301.867 296.152 301.548 295.941 300.701C295.747 299.789 296.37 299.121 296.781 298.679C297.515 297.889 298.084 297.47 298.461 297.192C298.599 297.091 298.754 296.976 298.798 296.927C299.149 296.524 298.13 294.267 297.751 293.416C296.893 291.505 296.151 289.851 297.225 288.808C297.993 288.061 299.285 288.128 301.17 289.015C301.757 289.292 302.234 289.624 302.621 289.929C302.726 289.565 302.941 289.207 303.364 288.974C304.366 288.424 305.683 289.064 307.282 290.874C307.681 291.324 308.215 291.929 308.64 292.862C308.84 293.302 308.968 293.711 309.072 294.063C309.279 294.017 309.514 294.007 309.775 294.072C310.545 294.261 311.065 294.94 311.29 296.109C311.556 297.391 311.587 298.496 311.617 299.47C311.643 300.32 311.669 301.052 311.847 301.585C312.193 302.57 313.202 303.135 314.486 303.771L317.739 305.346L317.739 305.346Z" fill="#F2F2F2"/>
<path d="M315.361 291.872L314.848 287.299L315.082 286.952C316.166 285.349 316.719 283.783 316.725 282.297C316.726 282.06 316.715 281.824 316.704 281.583C316.66 280.629 316.605 279.443 317.224 278.061C317.571 277.29 318.545 275.506 320.01 275.727C320.405 275.782 320.703 275.963 320.929 276.175C320.963 276.122 320.997 276.069 321.033 276.012C321.49 275.316 321.851 275.018 322.199 274.731C322.466 274.51 322.743 274.282 323.176 273.744C323.366 273.507 323.514 273.3 323.639 273.125C324.018 272.597 324.513 271.968 325.386 271.979C326.318 272.023 326.806 272.794 327.13 273.304C327.708 274.214 327.97 274.87 328.143 275.305C328.206 275.464 328.278 275.643 328.315 275.698C328.615 276.14 331.058 275.727 331.979 275.577C334.046 275.232 335.835 274.934 336.572 276.237C337.1 277.169 336.707 278.401 335.371 279.998C334.954 280.495 334.511 280.872 334.118 281.168C334.444 281.362 334.735 281.661 334.853 282.129C335.132 283.237 334.178 284.348 332.02 285.435C331.485 285.706 330.763 286.069 329.752 286.243C329.276 286.325 328.847 286.345 328.48 286.356C328.473 286.568 328.423 286.797 328.294 287.034C327.915 287.729 327.126 288.061 325.937 287.981C324.629 287.913 323.551 287.663 322.601 287.444C321.771 287.254 321.057 287.093 320.495 287.131C319.454 287.215 318.652 288.047 317.711 289.127L315.361 291.872V291.872Z" fill="#F2F2F2"/>
<path d="M320.043 380.65L319.084 380.049L318.852 378.943L319.084 380.049L317.966 380.177C317.948 380.073 317.888 379.835 317.796 379.462C317.295 377.417 315.77 371.193 314.497 361.392C313.608 354.551 313.106 347.517 313.002 340.483C312.898 333.439 313.232 328.105 313.499 323.819C313.701 320.586 313.946 317.507 314.187 314.508C314.828 306.496 315.433 298.928 314.983 290.549C314.883 288.679 314.675 284.785 312.398 280.643C311.078 278.24 309.259 276.106 306.992 274.304L308.402 272.533C310.905 274.525 312.917 276.888 314.383 279.556C316.906 284.149 317.134 288.392 317.243 290.43C317.701 298.957 317.09 306.598 316.442 314.687C316.204 317.675 315.958 320.74 315.757 323.96C315.492 328.207 315.162 333.494 315.265 340.448C315.366 347.398 315.863 354.345 316.74 361.101C317.997 370.778 319.501 376.909 319.995 378.923C320.258 379.998 320.313 380.223 320.043 380.65V380.65Z" fill="#F2F2F2"/>
<path d="M302.842 277.898C302.749 277.898 302.655 277.895 302.56 277.889C300.633 277.785 298.849 276.632 297.256 274.464C296.509 273.443 296.126 272.279 295.364 269.958C295.246 269.601 294.671 267.785 294.322 265.288C294.093 263.656 294.122 262.973 294.446 262.37C294.805 261.699 295.386 261.231 296.04 260.915C296.011 260.699 296.035 260.476 296.129 260.248C296.514 259.305 297.54 259.429 298.094 259.488C298.375 259.524 298.725 259.57 299.103 259.55C299.697 259.522 300.017 259.345 300.501 259.08C300.964 258.826 301.539 258.51 302.393 258.336C304.077 257.984 305.488 258.461 305.953 258.618C308.401 259.433 309.607 261.335 311.004 263.536C311.282 263.978 312.238 265.586 312.869 267.79C313.324 269.38 313.26 270.086 313.123 270.612C312.845 271.692 312.187 272.31 310.518 273.675C308.774 275.104 307.899 275.819 307.148 276.255C305.399 277.264 304.3 277.898 302.842 277.898V277.898Z" fill="#F2F2F2"/>
<path d="M226.166 173.584L121.658 153.87L121.238 161.42L224.907 186.167L226.166 173.584Z" fill="#FF9B63"/>
<path d="M122.917 155.128L121.658 153.87C121.658 153.87 116.202 151.353 116.202 150.934C116.202 150.671 108.145 147.944 102.117 145.94C98.7501 144.821 95.1948 147.035 94.7155 150.548L93.9601 156.084C93.5084 159.395 96.0076 162.374 99.3479 162.508L114.103 163.098L121.238 161.42L122.917 155.128V155.128Z" fill="#FF9B63"/>
<path d="M225.956 175.891L226.205 174.846L121.631 154.866L121.448 156.177L225.956 175.891Z" fill="#3F3D56"/>
<path d="M225.717 177.875L225.956 176.729L121.517 156.934L121.448 158.274L225.717 177.875Z" fill="#3F3D56"/>
<path d="M225.477 180.253L225.537 178.407L121.435 158.44L121.448 159.532L225.477 180.253Z" fill="#3F3D56"/>
<path d="M225.198 183.014L225.117 181.343L121.283 159.945L121.194 160.355L225.198 183.014Z" fill="#3F3D56"/>
<path d="M225.196 184.689L225.117 183.441L121.439 160.637L121.346 161.046L225.196 184.689Z" fill="#3F3D56"/>
<path d="M165.144 114.914L170.345 112.036L172.6 158.064L171.814 163.727C171.814 163.727 158.685 127.549 165.144 114.914H165.144Z" fill="#3F3D56"/>
<path d="M182.936 100.6C190.122 100.6 195.947 94.7788 195.947 87.5976C195.947 80.4164 190.122 74.5948 182.936 74.5948C175.75 74.5948 169.925 80.4164 169.925 87.5976C169.925 94.7788 175.75 100.6 182.936 100.6Z" fill="#A0616A"/>
<path d="M171.814 95.3573L174.924 97.8389L171.394 84.4518C171.394 84.4518 181.257 84.2421 182.096 78.7893C182.096 78.7893 189.861 78.5796 191.96 78.5796C194.058 78.5796 195.005 92.4566 195.005 92.4566C195.005 92.4566 199.095 81.0963 194.898 75.224C190.701 69.3518 192.17 72.9171 191.33 70.8199C190.491 68.7227 181.887 66.7939 176.43 68.9324C170.974 71.0709 170.764 74.1193 169.085 74.1474C167.407 74.1754 161.531 82.5643 166.987 89.2754C172.443 95.9865 171.814 95.3573 171.814 95.3573V95.3573Z" fill="#2F2E41"/>
<path d="M211.563 180.684C213.105 179.455 214.241 177.979 214.882 176.52L230.314 165.732L224.962 158.544L209.885 170.261C208.319 170.561 206.627 171.341 205.085 172.571C201.562 175.38 200.156 179.474 201.945 181.714C203.734 183.955 208.04 183.494 211.563 180.684V180.684Z" fill="#A0616A"/>
<path d="M152.442 164.275C151.298 165.882 150.611 167.613 150.397 169.191L138.529 183.804L145.652 189.244L156.924 173.836C158.346 173.117 159.759 171.902 160.903 170.296C163.517 166.627 163.742 162.304 161.406 160.642C159.069 158.979 155.056 160.606 152.442 164.275L152.442 164.275Z" fill="#A0616A"/>
<path d="M206.65 119.895C206.65 119.895 210.427 113.603 214.204 117.378C217.194 120.365 233.586 139.373 240.297 147.177C242.148 149.329 243.165 152.071 243.165 154.909C243.165 159.298 240.74 163.329 236.86 165.388L215.883 176.52L210.007 167.711L228.055 154.709L200.354 139.609L206.65 119.895V119.895Z" fill="#E6E6E6"/>
<path d="M140.319 177.875L136.978 187.635L146.631 192.668L153.976 187.635L158.593 176.939L144.952 172.954" fill="#E6E6E6"/>
<path d="M296.381 84.3285L264.673 92.9363L269.287 113.498C267.795 112.498 266.001 111.913 264.069 111.913C258.89 111.913 254.692 116.109 254.692 121.284C254.692 126.46 258.89 130.655 264.069 130.655C269.248 130.655 273.446 126.46 273.446 121.284C273.446 119.485 272.93 117.811 272.051 116.384L268.393 100.082L295.747 91.487L298.249 103.63C296.748 102.61 294.935 102.012 292.982 102.012C287.803 102.012 283.605 106.207 283.605 111.383C283.605 116.559 287.803 120.754 292.982 120.754C298.161 120.754 302.359 116.559 302.359 111.383C302.359 109.565 301.833 107.874 300.936 106.437L296.381 84.3285V84.3285Z" fill="#FFBC0F"/>
<path d="M327.479 103.549C322.353 103.549 318.199 107.701 318.199 112.823C318.199 114.271 318.54 115.636 319.132 116.857L324.429 138.691L327.435 137.962L323.349 121.119C324.594 121.74 325.993 122.097 327.479 122.097C332.604 122.097 336.758 117.945 336.758 112.823C336.758 107.701 332.604 103.549 327.479 103.549V103.549Z" fill="#FFBC0F"/>
<path d="M365.243 151.671L359.985 130.655L356.793 131.405L360.906 147.843C359.641 147.271 358.235 146.942 356.747 146.942C351.306 146.942 346.895 151.216 346.895 156.489C346.895 161.761 351.306 166.036 356.747 166.036C362.189 166.036 366.6 161.761 366.6 156.489C366.6 154.729 366.1 153.086 365.243 151.671V151.671Z" fill="#FFBC0F"/>
<path d="M379 381.409C379 381.767 378.71 382.057 378.352 382.057H72V380.761H378.352C378.71 380.761 379 381.052 379 381.409L379 381.409Z" fill="#E6E6E6"/>
</g>
<defs>
<clipPath id="clip0_86_366">
<rect width="307" height="314.057" fill="white" transform="translate(72 68)"/>
</clipPath>
</defs>
</svg>
