<svg width="450" height="450" viewBox="0 0 450 450" fill="none" xmlns="http://www.w3.org/2000/svg">
<path d="M13.7041 248.442H13.6725C11.0489 248.472 8.47502 247.74 6.27551 246.34C4.27623 245.069 2.64798 243.312 1.54974 241.241C0.451499 239.17 -0.0791772 236.856 0.00955189 234.524L5.15009 108.848C5.28222 105.391 6.78078 102.119 9.32982 99.7225C11.8789 97.3256 15.2793 95.991 18.8142 96H311.213C320.549 95.9994 329.569 99.3093 336.603 105.317L407.061 165.489C416.125 170.741 423.532 178.341 428.464 187.45C433.397 196.559 435.665 206.824 435.018 217.113C434.58 224.377 434.275 228.823 434.074 231.764C433.687 236.35 433.561 240.953 433.697 245.553L433.712 247.531L13.7041 248.442Z" fill="#F0F0F0"/>
<path d="M267.702 208.963H28.0798C25.3096 208.96 22.6538 207.882 20.6951 205.965C18.7363 204.048 17.6345 201.449 17.6313 198.737V129.049C17.6345 126.338 18.7363 123.739 20.6951 121.822C22.6538 119.905 25.3096 118.827 28.0798 118.823H267.702C270.472 118.827 273.128 119.905 275.087 121.822C277.045 123.739 278.147 126.338 278.15 129.049V198.737C278.147 201.449 277.045 204.048 275.087 205.965C273.128 207.882 270.472 208.96 267.702 208.963Z" fill="#E4E4E4"/>
<path d="M359.775 179.742C359.263 179.742 358.753 179.673 358.259 179.537L307.683 165.695C306.522 165.372 305.498 164.692 304.763 163.756C304.027 162.82 303.619 161.676 303.598 160.495L303.204 130.398C303.194 129.661 303.337 128.93 303.623 128.248C303.91 127.567 304.334 126.948 304.87 126.431C305.407 125.914 306.044 125.508 306.745 125.237C307.446 124.967 308.195 124.838 308.948 124.858L338.956 125.663C340.406 125.699 341.784 126.288 342.797 127.304L364.49 148.976C365.017 149.506 365.431 150.134 365.704 150.823C365.978 151.512 366.107 152.248 366.083 152.987L365.353 174.45C365.303 175.867 364.695 177.21 363.655 178.197C362.615 179.184 361.224 179.738 359.775 179.742Z" fill="white"/>
<path d="M401.548 270.575C415.528 270.575 426.862 259.483 426.862 245.8C426.862 232.118 415.528 221.026 401.548 221.026C387.567 221.026 376.234 232.118 376.234 245.8C376.234 259.483 387.567 270.575 401.548 270.575Z" fill="#3F3D56"/>
<path d="M401.548 261.474C410.392 261.474 417.563 254.457 417.563 245.8C417.563 237.144 410.392 230.127 401.548 230.127C392.703 230.127 385.533 237.144 385.533 245.8C385.533 254.457 392.703 261.474 401.548 261.474Z" fill="white"/>
<path d="M112.503 270.827C126.483 270.827 137.817 259.736 137.817 246.053C137.817 232.371 126.483 221.279 112.503 221.279C98.5224 221.279 87.1889 232.371 87.1889 246.053C87.1889 259.736 98.5224 270.827 112.503 270.827Z" fill="#3F3D56"/>
<path d="M112.503 261.727C121.348 261.727 128.518 254.709 128.518 246.053C128.518 237.397 121.348 230.38 112.503 230.38C103.658 230.38 96.4879 237.397 96.4879 246.053C96.4879 254.709 103.658 261.727 112.503 261.727Z" fill="white"/>
<path d="M367.193 183.431H365.126C363.326 183.429 361.601 182.728 360.328 181.482C359.055 180.237 358.339 178.548 358.337 176.786V162.124C358.339 160.362 359.055 158.673 360.328 157.428C361.601 156.182 363.326 155.481 365.126 155.479H367.193C368.993 155.481 370.718 156.182 371.991 157.428C373.264 158.673 373.98 160.362 373.982 162.124V176.786C373.98 178.548 373.264 180.237 371.991 181.482C370.718 182.728 368.993 183.429 367.193 183.431Z" fill="#3F3D56"/>
<path d="M151.726 158.079H30.3615V161.113H151.726V158.079Z" fill="#F0F0F0"/>
<path d="M151.726 178.303H30.3615V181.337H151.726V178.303Z" fill="#F0F0F0"/>
<path d="M63.683 203.085H54.9006C53.9394 203.085 53.0176 202.711 52.338 202.046C51.6584 201.381 51.2765 200.479 51.2765 199.538C51.2765 198.597 51.6584 197.695 52.338 197.03C53.0176 196.365 53.9394 195.991 54.9006 195.991H63.683C64.6442 195.991 65.566 196.365 66.2456 197.03C66.9252 197.695 67.3071 198.597 67.3071 199.538C67.3071 200.479 66.9252 201.381 66.2456 202.046C65.566 202.711 64.6442 203.085 63.683 203.085Z" fill="#F0F0F0"/>
<path d="M74.0152 196.64C73.2299 196.64 72.4767 196.945 71.9214 197.489C71.3661 198.032 71.0541 198.769 71.0541 199.538C71.0541 200.307 71.3661 201.044 71.9214 201.587C72.4767 202.131 73.2299 202.436 74.0152 202.436H82.7976C83.583 202.436 84.3361 202.131 84.8914 201.587C85.4467 201.044 85.7587 200.307 85.7587 199.538C85.7587 198.769 85.4467 198.032 84.8914 197.489C84.3361 196.945 83.583 196.64 82.7976 196.64H74.0152Z" fill="#F0F0F0"/>
<path d="M101.912 203.085H93.1299C92.1687 203.085 91.2469 202.711 90.5673 202.046C89.8876 201.381 89.5058 200.479 89.5058 199.538C89.5058 198.597 89.8876 197.695 90.5673 197.03C91.2469 196.365 92.1687 195.991 93.1299 195.991H101.912C102.873 195.991 103.795 196.365 104.475 197.03C105.155 197.695 105.536 198.597 105.536 199.538C105.536 200.479 105.155 201.381 104.475 202.046C103.795 202.711 102.873 203.085 101.912 203.085Z" fill="#F0F0F0"/>
<path d="M152.296 210.163H43.2625C42.0982 210.16 40.983 209.704 40.1611 208.897C39.3392 208.09 38.8777 206.997 38.8777 205.858C38.8777 204.719 39.3392 203.626 40.1611 202.819C40.983 202.012 42.0982 201.556 43.2625 201.553H152.296C153.461 201.556 154.576 202.012 155.398 202.819C156.22 203.626 156.681 204.719 156.681 205.858C156.681 206.997 156.22 208.09 155.398 208.897C154.576 209.704 153.461 210.16 152.296 210.163Z" fill="#F0F0F0"/>
<path d="M45.2029 178.833H41.0037C40.6541 178.833 40.3189 178.697 40.0717 178.455C39.8244 178.213 39.6853 177.885 39.6849 177.543V168.546C39.6852 168.204 39.8243 167.875 40.0715 167.633C40.3188 167.391 40.654 167.255 41.0037 167.255C41.0753 167.255 41.1439 167.227 41.1946 167.177C41.2452 167.128 41.2736 167.061 41.2737 166.991V165.047C41.2737 164.572 41.4665 164.116 41.8096 163.78C42.1527 163.445 42.618 163.256 43.1033 163.256C43.5885 163.256 44.0539 163.445 44.397 163.78C44.7401 164.116 44.9329 164.572 44.9329 165.047V166.991C44.9329 167.061 44.9614 167.128 45.012 167.177C45.0626 167.227 45.1313 167.255 45.2029 167.255C45.5526 167.255 45.8878 167.391 46.1351 167.633C46.3823 167.875 46.5214 168.204 46.5217 168.546V177.543C46.5213 177.885 46.3822 178.213 46.135 178.455C45.8877 178.697 45.5525 178.833 45.2029 178.833Z" fill="#F0F0F0"/>
<path d="M55.2355 178.833H51.0364C50.6867 178.833 50.3515 178.697 50.1043 178.455C49.857 178.213 49.7179 177.885 49.7175 177.543V168.546C49.7178 168.204 49.8569 167.875 50.1041 167.633C50.3514 167.391 50.6866 167.255 51.0364 167.255C51.108 167.255 51.1766 167.227 51.2272 167.177C51.2779 167.128 51.3064 167.061 51.3065 166.991V165.047C51.3083 164.573 51.5019 164.119 51.8448 163.785C52.1877 163.451 52.652 163.263 53.136 163.263C53.62 163.263 54.0843 163.451 54.4272 163.785C54.7701 164.119 54.9636 164.573 54.9655 165.047V166.991C54.9655 167.061 54.994 167.128 55.0446 167.177C55.0952 167.227 55.1639 167.255 55.2355 167.255C55.5852 167.255 55.9204 167.391 56.1677 167.633C56.415 167.875 56.5541 168.204 56.5545 168.546V177.543C56.554 177.885 56.4149 178.213 56.1676 178.455C55.9204 178.697 55.5851 178.833 55.2355 178.833Z" fill="#F0F0F0"/>
<path d="M119.676 159.951H115.477C115.127 159.95 114.792 159.814 114.545 159.572C114.297 159.33 114.158 159.002 114.158 158.66V149.664C114.158 149.321 114.297 148.993 114.545 148.751C114.792 148.509 115.127 148.373 115.477 148.373C115.548 148.373 115.617 148.345 115.668 148.295C115.718 148.246 115.747 148.178 115.747 148.108V146.164C115.749 145.691 115.943 145.238 116.286 144.904C116.629 144.57 117.093 144.382 117.576 144.382C118.06 144.382 118.524 144.57 118.867 144.904C119.21 145.238 119.404 145.691 119.406 146.164V148.108C119.406 148.178 119.434 148.246 119.485 148.295C119.536 148.345 119.604 148.373 119.676 148.373C120.026 148.373 120.361 148.509 120.608 148.751C120.855 148.993 120.994 149.321 120.995 149.664V158.66C120.994 159.002 120.855 159.33 120.608 159.572C120.361 159.814 120.026 159.95 119.676 159.951Z" fill="#F0F0F0"/>
<path d="M129.709 159.951H125.51C125.16 159.95 124.825 159.814 124.577 159.572C124.33 159.33 124.191 159.002 124.191 158.66V149.664C124.191 149.321 124.33 148.993 124.577 148.751C124.825 148.509 125.16 148.373 125.51 148.373C125.581 148.373 125.65 148.345 125.7 148.295C125.751 148.246 125.779 148.178 125.779 148.108V146.164C125.78 145.69 125.974 145.235 126.317 144.9C126.66 144.565 127.124 144.377 127.609 144.377C128.094 144.377 128.559 144.565 128.902 144.9C129.245 145.235 129.438 145.69 129.439 146.164V148.108C129.439 148.178 129.467 148.246 129.518 148.295C129.568 148.345 129.637 148.373 129.709 148.373C130.058 148.373 130.394 148.509 130.641 148.751C130.888 148.993 131.027 149.321 131.028 149.664V158.66C131.027 159.002 130.888 159.33 130.641 159.572C130.393 159.814 130.058 159.95 129.709 159.951Z" fill="#F0F0F0"/>
<path d="M253.982 135.522H196.873V209.918H253.982V135.522Z" fill="#F0F0F0"/>
<path d="M253.982 152.351H196.873V153.862H253.982V152.351Z" fill="#E4E4E4"/>
<path d="M253.982 170.478H196.873V171.989H253.982V170.478Z" fill="#E4E4E4"/>
<path d="M253.982 188.605H196.873V190.116H253.982V188.605Z" fill="#E4E4E4"/>
<path d="M68.2077 179.677H63.9176C63.3242 179.677 62.7553 179.446 62.3357 179.035C61.9162 178.624 61.6802 178.067 61.6795 177.487V172.155C61.6802 171.575 61.9162 171.018 62.3357 170.607C62.7553 170.197 63.3242 169.965 63.9176 169.965H68.2077C68.801 169.965 69.3699 170.197 69.7895 170.607C70.2091 171.018 70.4451 171.575 70.4457 172.155V177.487C70.4451 178.067 70.2091 178.624 69.7895 179.035C69.3699 179.446 68.801 179.677 68.2077 179.677Z" fill="#F0F0F0"/>
<path d="M205.849 175.126C205.563 175.154 205.275 175.161 204.988 175.146C204.94 175.14 204.891 175.154 204.852 175.184C204.813 175.214 204.788 175.257 204.782 175.305L204.233 179.333C204.191 179.625 204.069 179.901 203.879 180.131C203.723 180.314 203.607 180.526 203.538 180.755C203.469 180.983 203.449 181.223 203.479 181.46V188.302C203.479 188.302 203.444 189.214 204.16 189.214C205.017 189.319 205.885 189.319 206.742 189.214C206.742 189.214 207.315 189.108 207.315 188.266V181.529C207.359 181.294 207.35 181.052 207.289 180.821C207.228 180.59 207.116 180.374 206.961 180.19C206.778 179.959 206.66 179.685 206.618 179.396L206.048 175.284C206.042 175.238 206.017 175.196 205.98 175.166C205.943 175.137 205.896 175.123 205.849 175.126Z" fill="#E4E4E4"/>
<path d="M212.794 175.126C212.509 175.154 212.221 175.161 211.934 175.146C211.885 175.14 211.836 175.154 211.798 175.184C211.759 175.214 211.734 175.257 211.728 175.305L211.179 179.333C211.137 179.625 211.015 179.901 210.825 180.131C210.669 180.314 210.553 180.526 210.484 180.755C210.415 180.983 210.395 181.223 210.425 181.46V188.302C210.425 188.302 210.39 189.214 211.106 189.214C211.963 189.319 212.83 189.319 213.688 189.214C213.688 189.214 214.261 189.108 214.261 188.266V181.529C214.305 181.294 214.296 181.052 214.235 180.821C214.173 180.59 214.062 180.374 213.907 180.19C213.724 179.959 213.606 179.685 213.564 179.396L212.994 175.284C212.987 175.238 212.963 175.196 212.926 175.166C212.889 175.137 212.842 175.123 212.794 175.126Z" fill="#E4E4E4"/>
<path d="M219.74 175.126C219.454 175.154 219.167 175.161 218.88 175.146C218.831 175.14 218.782 175.154 218.743 175.184C218.705 175.214 218.68 175.257 218.673 175.305L218.125 179.333C218.082 179.625 217.96 179.901 217.771 180.131C217.614 180.314 217.498 180.526 217.43 180.755C217.361 180.983 217.341 181.223 217.371 181.46V188.302C217.371 188.302 217.335 189.214 218.051 189.214C218.909 189.319 219.776 189.319 220.633 189.214C220.633 189.214 221.207 189.108 221.207 188.266V181.529C221.25 181.294 221.241 181.052 221.18 180.821C221.119 180.59 221.007 180.374 220.853 180.19C220.669 179.959 220.551 179.685 220.509 179.396L219.939 175.284C219.933 175.238 219.909 175.196 219.872 175.166C219.835 175.137 219.787 175.123 219.74 175.126Z" fill="#E4E4E4"/>
<path d="M205.849 156.999C205.563 157.027 205.275 157.034 204.988 157.019C204.94 157.013 204.891 157.027 204.852 157.057C204.813 157.087 204.788 157.13 204.782 157.178L204.233 161.206C204.191 161.498 204.069 161.774 203.879 162.004C203.723 162.187 203.607 162.399 203.538 162.628C203.469 162.856 203.449 163.096 203.479 163.333V170.175C203.479 170.175 203.444 171.087 204.16 171.087C205.017 171.192 205.885 171.192 206.742 171.087C206.742 171.087 207.315 170.981 207.315 170.139V163.402C207.359 163.167 207.35 162.926 207.289 162.694C207.228 162.463 207.116 162.247 206.961 162.063C206.778 161.832 206.66 161.559 206.618 161.269L206.048 157.157C206.042 157.111 206.017 157.069 205.98 157.04C205.943 157.01 205.896 156.996 205.849 156.999Z" fill="#E4E4E4"/>
<path d="M212.794 156.999C212.509 157.027 212.221 157.034 211.934 157.019C211.885 157.013 211.836 157.027 211.798 157.057C211.759 157.087 211.734 157.13 211.728 157.178L211.179 161.206C211.137 161.498 211.015 161.774 210.825 162.004C210.669 162.187 210.553 162.399 210.484 162.628C210.415 162.856 210.395 163.096 210.425 163.333V170.175C210.425 170.175 210.39 171.087 211.106 171.087C211.963 171.192 212.83 171.192 213.688 171.087C213.688 171.087 214.261 170.981 214.261 170.139V163.402C214.305 163.167 214.296 162.926 214.235 162.694C214.173 162.463 214.062 162.247 213.907 162.063C213.724 161.832 213.606 161.559 213.564 161.269L212.994 157.157C212.987 157.111 212.963 157.069 212.926 157.04C212.889 157.01 212.842 156.996 212.794 156.999Z" fill="#E4E4E4"/>
<path d="M219.74 156.999C219.454 157.027 219.167 157.034 218.88 157.019C218.831 157.013 218.782 157.027 218.743 157.057C218.705 157.087 218.68 157.13 218.673 157.178L218.125 161.206C218.082 161.498 217.96 161.774 217.771 162.004C217.614 162.187 217.498 162.399 217.43 162.628C217.361 162.856 217.341 163.096 217.371 163.333V170.175C217.371 170.175 217.335 171.087 218.051 171.087C218.909 171.192 219.776 171.192 220.633 171.087C220.633 171.087 221.207 170.981 221.207 170.139V163.402C221.25 163.167 221.241 162.926 221.18 162.694C221.119 162.463 221.007 162.247 220.853 162.063C220.669 161.832 220.551 161.559 220.509 161.269L219.939 157.157C219.933 157.111 219.909 157.069 219.872 157.04C219.835 157.01 219.787 156.996 219.74 156.999Z" fill="#E4E4E4"/>
<path d="M234.017 156.999C233.731 157.027 233.444 157.034 233.157 157.019C233.108 157.013 233.059 157.027 233.02 157.057C232.982 157.087 232.957 157.13 232.951 157.178L232.402 161.206C232.36 161.498 232.237 161.774 232.048 162.004C231.892 162.187 231.776 162.399 231.707 162.628C231.638 162.856 231.618 163.096 231.648 163.333V170.175C231.648 170.175 231.613 171.087 232.329 171.087C233.186 171.192 234.053 171.192 234.91 171.087C234.91 171.087 235.484 170.981 235.484 170.139V163.402C235.528 163.167 235.519 162.926 235.457 162.694C235.396 162.463 235.285 162.247 235.13 162.063C234.947 161.832 234.828 161.559 234.786 161.269L234.217 157.157C234.21 157.111 234.186 157.069 234.149 157.04C234.112 157.01 234.065 156.996 234.017 156.999Z" fill="#E4E4E4"/>
<path d="M240.963 156.999C240.677 157.027 240.39 157.034 240.103 157.019C240.054 157.013 240.005 157.027 239.966 157.057C239.928 157.087 239.902 157.13 239.896 157.178L239.348 161.206C239.305 161.498 239.183 161.774 238.994 162.004C238.837 162.187 238.721 162.399 238.653 162.628C238.584 162.856 238.564 163.096 238.594 163.333V170.175C238.594 170.175 238.558 171.087 239.274 171.087C240.132 171.192 240.999 171.192 241.856 171.087C241.856 171.087 242.43 170.981 242.43 170.139V163.402C242.473 163.167 242.464 162.926 242.403 162.694C242.342 162.463 242.23 162.247 242.076 162.063C241.892 161.832 241.774 161.559 241.732 161.269L241.162 157.157C241.156 157.111 241.132 157.069 241.095 157.04C241.058 157.01 241.01 156.996 240.963 156.999Z" fill="#E4E4E4"/>
<path d="M247.908 156.999C247.623 157.027 247.335 157.034 247.048 157.019C246.999 157.013 246.95 157.027 246.912 157.057C246.873 157.087 246.848 157.13 246.842 157.178L246.293 161.206C246.251 161.498 246.129 161.774 245.939 162.004C245.783 162.187 245.667 162.399 245.598 162.628C245.529 162.856 245.509 163.096 245.539 163.333V170.175C245.539 170.175 245.504 171.087 246.22 171.087C247.077 171.192 247.945 171.192 248.802 171.087C248.802 171.087 249.375 170.981 249.375 170.139V163.402C249.419 163.167 249.41 162.926 249.349 162.694C249.288 162.463 249.176 162.247 249.021 162.063C248.838 161.832 248.72 161.559 248.678 161.269L248.108 157.157C248.101 157.111 248.077 157.069 248.04 157.04C248.003 157.01 247.956 156.996 247.908 156.999Z" fill="#E4E4E4"/>
<path d="M217.811 139.25C217.525 139.278 217.237 139.284 216.95 139.269C216.902 139.264 216.853 139.278 216.814 139.308C216.775 139.338 216.75 139.381 216.744 139.429L216.195 143.457C216.153 143.749 216.031 144.025 215.841 144.254C215.685 144.437 215.569 144.65 215.5 144.878C215.431 145.107 215.411 145.347 215.441 145.584V152.426C215.441 152.426 215.406 153.338 216.122 153.338C216.979 153.443 217.847 153.443 218.704 153.338C218.704 153.338 219.277 153.232 219.277 152.39V145.653C219.321 145.418 219.312 145.176 219.251 144.945C219.19 144.714 219.078 144.498 218.923 144.313C218.74 144.083 218.622 143.809 218.58 143.52L218.01 139.408C218.004 139.362 217.979 139.32 217.942 139.29C217.905 139.261 217.858 139.246 217.811 139.25Z" fill="#E4E4E4"/>
<path d="M224.756 139.25C224.47 139.278 224.183 139.284 223.896 139.269C223.847 139.264 223.798 139.278 223.76 139.308C223.721 139.338 223.696 139.381 223.69 139.429L223.141 143.457C223.099 143.749 222.976 144.025 222.787 144.254C222.631 144.437 222.515 144.65 222.446 144.878C222.377 145.107 222.357 145.347 222.387 145.584V152.426C222.387 152.426 222.352 153.338 223.068 153.338C223.925 153.443 224.792 153.443 225.65 153.338C225.65 153.338 226.223 153.232 226.223 152.39V145.653C226.267 145.418 226.258 145.176 226.197 144.945C226.135 144.714 226.024 144.498 225.869 144.313C225.686 144.083 225.567 143.809 225.526 143.52L224.956 139.408C224.949 139.362 224.925 139.32 224.888 139.29C224.851 139.261 224.804 139.246 224.756 139.25Z" fill="#E4E4E4"/>
<path d="M231.702 139.25C231.416 139.278 231.129 139.284 230.842 139.269C230.793 139.264 230.744 139.278 230.705 139.308C230.667 139.338 230.642 139.381 230.635 139.429L230.087 143.457C230.044 143.749 229.922 144.025 229.733 144.254C229.576 144.437 229.46 144.65 229.392 144.878C229.323 145.107 229.303 145.347 229.333 145.584V152.426C229.333 152.426 229.297 153.338 230.013 153.338C230.871 153.443 231.738 153.443 232.595 153.338C232.595 153.338 233.169 153.232 233.169 152.39V145.653C233.212 145.418 233.203 145.176 233.142 144.945C233.081 144.714 232.969 144.498 232.815 144.313C232.631 144.083 232.513 143.809 232.471 143.52L231.901 139.408C231.895 139.362 231.871 139.32 231.834 139.29C231.797 139.261 231.749 139.246 231.702 139.25Z" fill="#E4E4E4"/>
<path d="M449.378 271.352H1.01784C0.852915 271.352 0.694752 271.266 0.578131 271.112C0.461509 270.958 0.395983 270.75 0.395983 270.533C0.395983 270.315 0.461509 270.107 0.578131 269.953C0.694752 269.799 0.852915 269.713 1.01784 269.713H449.378C449.543 269.713 449.701 269.799 449.818 269.953C449.935 270.107 450 270.315 450 270.533C450 270.75 449.935 270.958 449.818 271.112C449.701 271.266 449.543 271.352 449.378 271.352Z" fill="#CACACA"/>
<path d="M254.916 269.607C255.351 269.32 255.717 268.943 255.987 268.503C256.257 268.062 256.426 267.569 256.481 267.059C256.535 266.548 256.475 266.031 256.304 265.546C256.132 265.06 255.854 264.618 255.489 264.249L261.239 253.103L254.653 253.85L250.203 264.32C249.61 264.961 249.279 265.793 249.271 266.658C249.263 267.523 249.579 268.36 250.16 269.012C250.741 269.663 251.546 270.084 252.422 270.194C253.299 270.303 254.186 270.094 254.916 269.607Z" fill="#FFB7B7"/>
<path d="M301.025 348.558L295.844 348.557L293.379 328.998H301.026L301.025 348.558Z" fill="#FFB7B7"/>
<path d="M302.347 353.473L285.639 353.473V353.266C285.64 351.578 286.325 349.959 287.544 348.766C288.764 347.572 290.418 346.902 292.142 346.902L302.347 346.902L302.347 353.473Z" fill="#2F2E41"/>
<path d="M272.708 348.558L267.527 348.557L265.062 328.998H272.709L272.708 348.558Z" fill="#FFB7B7"/>
<path d="M272.762 353.473L256.054 353.473V353.266C256.054 351.578 256.74 349.959 257.959 348.766C259.179 347.572 260.833 346.902 262.557 346.902L272.762 346.902L272.762 353.473Z" fill="#2F2E41"/>
<path d="M272.284 265.946L267.212 277.381L263.029 343.108L273.595 342.694L276.481 311.362L285.382 283.455L290.5 314.567L292.614 341.867L301.356 342.237L304.84 265.946H272.284Z" fill="#2F2E41"/>
<path d="M297.636 209.52L282.936 209.879L274.306 214.215L273.832 246.205L268.45 268.291C268.45 268.291 302.08 270.556 306.729 267.247L301.235 242.015L308.604 214.747L297.636 209.52Z" fill="#FF9B63"/>
<path d="M276.576 214.746L275.208 213.841C275.208 213.841 269.538 215.504 267.863 222.902C267.863 222.902 266.581 226.614 266.018 229.166C265.373 232.093 251.123 258.979 251.123 258.979L259.654 261.375L275.296 236.619L276.576 214.746Z" fill="#FF9B63"/>
<path d="M308.374 273.709C308.036 273.315 307.791 272.855 307.655 272.358C307.519 271.862 307.496 271.343 307.587 270.837C307.679 270.331 307.882 269.851 308.184 269.431C308.485 269.01 308.877 268.66 309.332 268.404L306.946 256.138L313.066 258.634L314.393 269.899C314.782 270.675 314.867 271.564 314.631 272.398C314.395 273.231 313.855 273.951 313.113 274.42C312.371 274.89 311.478 275.077 310.605 274.946C309.732 274.815 308.938 274.375 308.374 273.709Z" fill="#FFB7B7"/>
<path d="M306.392 215.129L307.963 214.629C307.963 214.629 312.943 217.758 312.47 225.321C312.47 225.321 312.656 229.235 312.478 231.84C312.273 234.828 315.014 264.517 315.014 264.517H306.138L302.334 237.631L306.392 215.129Z" fill="#FF9B63"/>
<path d="M301.244 196.099C301.244 198.071 300.647 199.999 299.527 201.639C298.407 203.279 296.816 204.558 294.954 205.312C293.092 206.067 291.043 206.265 289.066 205.88C287.09 205.495 285.274 204.545 283.849 203.151C282.424 201.756 281.453 199.979 281.06 198.044C280.667 196.11 280.869 194.105 281.64 192.282C282.411 190.46 283.717 188.903 285.393 187.807C287.069 186.711 289.039 186.126 291.054 186.126C293.75 186.119 296.338 187.161 298.249 189.022C300.16 190.883 301.238 193.411 301.244 196.049C301.244 196.066 301.244 196.082 301.244 196.099Z" fill="#FFB7B7"/>
<path d="M280.898 182.704C282.092 180.191 284.402 180.688 286.422 181.54C288.981 180.984 291.414 179.321 294.17 180.305C296.886 184.17 306.002 183.033 304.063 189.325C304.06 190.833 306.962 189.955 306.455 192.425C307.992 197.177 300.907 206.177 296.84 204.282C297.846 202.477 300.144 198.379 296.658 197.973C289.161 204.8 295.885 184.972 286.464 190.738C283.345 193.532 279.075 185.498 280.898 182.704Z" fill="#2F2E41"/>
<path d="M242.604 239.497C242.462 239.64 242.331 239.794 242.214 239.957L223.925 239.519L221.791 235.704L215.486 238.102L218.593 245.216C218.843 245.791 219.278 246.271 219.831 246.583C220.384 246.896 221.026 247.024 221.66 246.949L242.324 244.506C242.811 245.11 243.475 245.554 244.227 245.78C244.978 246.006 245.783 246.002 246.532 245.77C247.282 245.537 247.941 245.087 248.423 244.478C248.905 243.87 249.186 243.133 249.229 242.364C249.272 241.596 249.075 240.833 248.664 240.177C248.253 239.52 247.648 239.002 246.929 238.691C246.21 238.38 245.411 238.29 244.638 238.434C243.866 238.578 243.156 238.949 242.604 239.497Z" fill="#9F616A"/>
<path d="M182.984 348.201H188.998L191.858 325.5L182.983 325.501L182.984 348.201Z" fill="#9F616A"/>
<path d="M181.45 346.28L193.293 346.279C195.295 346.279 197.215 347.058 198.63 348.443C200.046 349.828 200.841 351.707 200.841 353.666V353.906L181.45 353.906L181.45 346.28Z" fill="#2F2E41"/>
<path d="M237.59 348.07L243.12 345.758L236.639 323.782L228.478 327.195L237.59 348.07Z" fill="#9F616A"/>
<path d="M235.408 346.893L246.299 342.339C248.14 341.57 250.218 341.548 252.075 342.277C253.933 343.007 255.418 344.429 256.205 346.23L256.301 346.451L238.47 353.906L235.408 346.893Z" fill="#2F2E41"/>
<path d="M212.214 244.414L212.649 251.311L186.637 254.035L190.552 243.563L212.214 244.414Z" fill="#9F616A"/>
<path d="M212.661 246.889C212.517 246.834 198.16 241.368 189.341 245.837L189.124 245.947L187.365 237.472L186.362 219.251L192.885 216.235L194.681 212.298L206.915 211.589L209.429 214.963L217.988 217.708L212.872 246.971L212.661 246.889Z" fill="#3F3D56"/>
<path d="M213.11 230.442L214.624 218.807L218.069 217.78L218.127 217.801C218.784 218.101 219.354 218.557 219.784 219.128C220.215 219.698 220.493 220.366 220.592 221.068C221.084 223.503 224.789 238.658 224.826 238.81L224.864 238.962L216.158 242.371L213.11 230.442Z" fill="#3F3D56"/>
<path d="M233.111 344.081L244.7 341.754L226.177 291.733L219.838 274.672C219.838 274.672 215.817 260.992 214.001 255.698L212.905 248.595L186.953 251.406C186.953 251.406 179.705 261.824 181.907 278.804L180.911 342.627L192.5 343.208L202.207 278.84L219.244 314.126C219.244 314.126 224.614 329.184 228.456 332.448L233.111 344.081Z" fill="#2F2E41"/>
<path d="M210.199 208.859H189.421C188.994 208.858 188.584 208.692 188.282 208.396C187.98 208.1 187.81 207.699 187.809 207.281V198.516C187.809 195.401 189.074 192.413 191.324 190.211C193.575 188.008 196.627 186.77 199.81 186.77C202.993 186.77 206.046 188.008 208.296 190.211C210.547 192.413 211.812 195.401 211.812 198.516V207.281C211.811 207.699 211.641 208.1 211.339 208.396C211.037 208.692 210.627 208.858 210.199 208.859Z" fill="#2F2E41"/>
<path d="M202.276 208.655C207.136 208.655 211.075 204.799 211.075 200.043C211.075 195.288 207.136 191.432 202.276 191.432C197.417 191.432 193.478 195.288 193.478 200.043C193.478 204.799 197.417 208.655 202.276 208.655Z" fill="#9F616A"/>
<path d="M188.17 196.333H202.263L202.407 194.573L203.13 196.333H205.3L205.586 192.845L207.018 196.333H211.217V196.161C211.214 193.732 210.104 191.403 208.13 189.686C206.156 187.969 203.479 187.003 200.687 187H198.7C195.909 187.003 193.232 187.969 191.258 189.686C189.284 191.403 188.173 193.732 188.17 196.161L188.17 196.333Z" fill="#2F2E41"/>
<path d="M201.841 210.495C201.746 210.495 201.65 210.487 201.556 210.47L192.253 208.864V193.816H202.494L202.24 194.105C198.713 198.131 201.37 204.661 203.269 208.194C203.409 208.453 203.471 208.745 203.449 209.037C203.426 209.329 203.32 209.609 203.142 209.844C202.994 210.046 202.798 210.21 202.572 210.323C202.346 210.436 202.095 210.495 201.841 210.495Z" fill="#2F2E41"/>
<path d="M252.74 238.003C252.16 238.061 251.577 238.074 250.995 238.043C250.895 238.033 250.796 238.061 250.718 238.121C250.639 238.182 250.588 238.27 250.576 238.367L249.462 246.54C249.377 247.133 249.128 247.693 248.744 248.159C248.427 248.53 248.191 248.961 248.052 249.425C247.912 249.889 247.872 250.376 247.932 250.856V264.741C247.932 264.741 247.86 266.592 249.314 266.592C251.053 266.806 252.813 266.806 254.553 266.592C254.553 266.592 255.716 266.376 255.716 264.668V250.997C255.805 250.52 255.787 250.03 255.663 249.561C255.539 249.091 255.312 248.654 254.998 248.279C254.626 247.811 254.386 247.256 254.301 246.669L253.145 238.325C253.132 238.231 253.083 238.145 253.007 238.086C252.932 238.026 252.837 237.997 252.74 238.003Z" fill="white"/>
<path d="M292.491 302.446C291.612 302.446 290.734 302.393 289.861 302.286C289.667 302.291 289.473 302.256 289.292 302.183C289.112 302.111 288.949 302.003 288.813 301.866C288.431 301.39 288.234 300.797 288.256 300.192L288.256 286.331C288.194 285.821 288.239 285.305 288.388 284.813C288.538 284.321 288.788 283.863 289.123 283.469C289.479 283.036 289.709 282.518 289.788 281.967L290.901 273.796C290.923 273.639 291.006 273.496 291.134 273.398C291.261 273.3 291.423 273.254 291.584 273.27C292.149 273.3 292.716 273.286 293.279 273.23L293.286 273.23C293.443 273.219 293.599 273.267 293.721 273.364C293.844 273.461 293.924 273.6 293.945 273.753L295.102 282.098C295.181 282.643 295.405 283.16 295.75 283.595C296.083 283.993 296.324 284.457 296.457 284.954C296.589 285.452 296.61 285.972 296.519 286.478V300.128C296.519 302.009 295.174 302.28 295.16 302.282C294.275 302.391 293.384 302.446 292.491 302.446ZM291.525 273.736C291.49 273.735 291.455 273.746 291.427 273.768C291.4 273.79 291.381 273.822 291.376 273.856L290.263 282.031C290.171 282.667 289.905 283.267 289.493 283.767C289.197 284.114 288.977 284.516 288.846 284.95C288.716 285.384 288.677 285.839 288.733 286.288L288.735 286.317V300.201C288.717 300.682 288.866 301.155 289.159 301.542C289.252 301.635 289.364 301.707 289.488 301.755C289.612 301.802 289.744 301.824 289.877 301.818L289.907 301.819C291.626 302.031 293.366 302.031 295.086 301.819C295.109 301.814 296.04 301.606 296.04 300.128L296.044 286.415C296.127 285.972 296.11 285.516 295.995 285.079C295.879 284.643 295.668 284.236 295.376 283.887C294.977 283.386 294.719 282.791 294.627 282.162L293.471 273.816C293.466 273.782 293.448 273.751 293.42 273.729C293.393 273.707 293.358 273.695 293.323 273.697C292.732 273.755 292.138 273.768 291.545 273.737L291.525 273.736Z" fill="#3F3D56"/>
<path d="M252.747 251.105H250.983C249.522 251.105 248.337 252.264 248.337 253.694V260.192C248.337 261.622 249.522 262.781 250.983 262.781H252.747C254.209 262.781 255.393 261.622 255.393 260.192V253.694C255.393 252.264 254.209 251.105 252.747 251.105Z" fill="#FFBC0F"/>
<path d="M243.254 223.488C242.674 223.545 242.09 223.559 241.508 223.528C241.409 223.517 241.309 223.545 241.231 223.606C241.153 223.666 241.102 223.755 241.089 223.851L239.976 232.025C239.89 232.618 239.642 233.178 239.257 233.644C238.94 234.015 238.705 234.446 238.565 234.91C238.426 235.374 238.385 235.861 238.446 236.341V250.225C238.446 250.225 238.374 252.077 239.827 252.077C241.567 252.29 243.327 252.29 245.066 252.077C245.066 252.077 246.23 251.861 246.23 250.153V236.482C246.318 236.005 246.3 235.515 246.176 235.045C246.052 234.576 245.825 234.139 245.511 233.764C245.14 233.296 244.9 232.741 244.815 232.154L243.658 223.809C243.645 223.715 243.596 223.63 243.521 223.57C243.446 223.511 243.35 223.481 243.254 223.488Z" fill="white"/>
<path d="M243.261 236.59H241.496C240.035 236.59 238.85 237.749 238.85 239.179V245.677C238.85 247.107 240.035 248.266 241.496 248.266H243.261C244.722 248.266 245.907 247.107 245.907 245.677V239.179C245.907 237.749 244.722 236.59 243.261 236.59Z" fill="#FFBC0F"/>
<path d="M211.154 255.17H202.92C202.156 255.17 201.423 254.873 200.882 254.344C200.342 253.815 200.038 253.097 200.038 252.349C200.038 251.601 200.342 250.884 200.882 250.355C201.423 249.826 202.156 249.529 202.92 249.529H211.154C211.918 249.529 212.651 249.826 213.192 250.355C213.732 250.884 214.036 251.601 214.036 252.349C214.036 253.097 213.732 253.815 213.192 254.344C212.651 254.873 211.918 255.17 211.154 255.17Z" fill="#E4E4E4"/>
<path d="M214.036 253.558H200.038C199.603 253.556 199.186 253.385 198.879 253.083C198.572 252.781 198.4 252.372 198.4 251.946C198.4 251.52 198.572 251.112 198.879 250.81C199.186 250.508 199.603 250.337 200.038 250.335H214.036C214.253 250.334 214.468 250.375 214.669 250.455C214.87 250.535 215.052 250.654 215.206 250.804C215.36 250.954 215.482 251.132 215.565 251.328C215.649 251.524 215.691 251.734 215.691 251.946C215.691 252.159 215.649 252.369 215.565 252.565C215.482 252.761 215.36 252.939 215.206 253.089C215.052 253.239 214.87 253.357 214.669 253.438C214.468 253.518 214.253 253.559 214.036 253.558Z" fill="#CACACA"/>
<path d="M212.374 260.428H201.466C200.274 260.427 199.13 259.962 198.287 259.136C197.444 258.31 196.971 257.191 196.971 256.023C196.971 254.856 197.444 253.736 198.287 252.91C199.13 252.084 200.274 251.62 201.466 251.618H212.374C213.568 251.618 214.713 252.082 215.557 252.908C216.401 253.735 216.875 254.855 216.875 256.023C216.875 257.192 216.401 258.312 215.557 259.138C214.713 259.964 213.568 260.428 212.374 260.428Z" fill="#E4E4E4"/>
<path d="M197.36 253.775C197.156 253.77 196.952 253.781 196.75 253.808L184.643 240.385L186.051 236.259L179.967 233.365L176.749 240.432C176.489 241.003 176.425 241.641 176.567 242.25C176.709 242.859 177.049 243.407 177.536 243.811L193.416 256.98C193.295 257.74 193.413 258.519 193.755 259.212C194.097 259.904 194.647 260.479 195.331 260.859C196.014 261.239 196.8 261.406 197.584 261.338C198.367 261.27 199.111 260.971 199.716 260.479C200.321 259.988 200.758 259.327 200.971 258.586C201.183 257.845 201.16 257.059 200.904 256.331C200.648 255.603 200.172 254.969 199.539 254.512C198.906 254.056 198.146 253.799 197.36 253.775Z" fill="#9F616A"/>
<path d="M178.871 235.354L183.604 222.16C184.136 220.604 184.802 219.66 185.585 219.351C185.739 219.283 185.906 219.248 186.075 219.246C186.244 219.244 186.412 219.277 186.567 219.342L188.69 221.966L190.659 230.065L185.609 241.691L178.871 235.354Z" fill="#3F3D56"/>
<path d="M352.421 354.54H99.8245C99.6486 354.54 99.48 354.472 99.3557 354.35C99.2313 354.228 99.1615 354.063 99.1615 353.891C99.1615 353.719 99.2313 353.554 99.3557 353.432C99.48 353.311 99.6486 353.242 99.8245 353.242H352.421C352.596 353.242 352.765 353.311 352.889 353.432C353.014 353.554 353.084 353.719 353.084 353.891C353.084 354.063 353.014 354.228 352.889 354.35C352.765 354.472 352.596 354.54 352.421 354.54Z" fill="#CACACA"/>
<path d="M290.871 137.274H12.0956C11.3954 137.274 10.7058 137.107 10.0864 136.788C9.46696 136.468 8.9364 136.006 8.54063 135.44C8.14486 134.875 7.89579 134.224 7.81497 133.543C7.73415 132.863 7.824 132.173 8.07678 131.534L21.9747 96.3967H280.992L294.89 131.534C295.143 132.173 295.232 132.863 295.152 133.543C295.071 134.224 294.822 134.875 294.426 135.441C294.03 136.006 293.5 136.468 292.88 136.788C292.261 137.107 291.571 137.274 290.871 137.274Z" fill="#CACACA"/>
</svg>
