<svg width="450" height="450" viewBox="0 0 450 450" fill="none" xmlns="http://www.w3.org/2000/svg">
<path d="M305.574 131.732C303.058 129.041 300.026 126.883 296.659 125.386C293.292 123.89 289.658 123.084 285.973 123.019C282.288 122.953 278.627 123.628 275.208 125.003C271.79 126.379 268.683 128.427 266.073 131.027L126.972 269.981C123.297 273.644 118.32 275.704 113.129 275.712C107.938 275.72 102.955 273.674 99.2686 270.022L78.6674 249.484C76.1204 246.939 73.0964 244.92 69.7681 243.542C66.4398 242.165 62.8724 241.456 59.2698 241.456C55.6671 241.456 52.0997 242.165 48.7714 243.542C45.4431 244.92 42.4191 246.939 39.8721 249.484L0 289.357H447V283.673L305.574 131.732Z" fill="#F0F0F0"/>
<path d="M142.669 363.399C119.163 356.007 96.0495 356.006 73.9709 363.396L73.7124 362.626C95.9574 355.18 119.24 355.179 142.913 362.624L142.669 363.399Z" fill="#E4E4E4"/>
<path d="M387.907 345.117C364.401 337.725 341.288 337.724 319.209 345.114L318.951 344.344C341.195 336.898 364.478 336.897 388.151 344.342L387.907 345.117Z" fill="#E4E4E4"/>
<path d="M402.763 179.256C420.274 133.875 410.59 87.8904 381.133 76.5477C351.676 65.2051 313.6 92.7993 296.089 138.181C278.577 183.563 288.261 229.547 317.719 240.89C347.176 252.233 385.252 224.638 402.763 179.256Z" fill="#FF9B63"/>
<path d="M315.321 306.106C315.138 306.106 314.961 306.039 314.822 305.919C314.684 305.799 314.594 305.633 314.568 305.452C314.535 305.224 311.364 282.374 314.212 252.005C316.843 223.959 325.291 183.562 350.598 150.385C350.658 150.305 350.734 150.238 350.821 150.187C350.907 150.137 351.003 150.104 351.102 150.09C351.201 150.077 351.302 150.083 351.399 150.109C351.496 150.134 351.587 150.179 351.667 150.239C351.747 150.3 351.814 150.376 351.864 150.462C351.914 150.549 351.947 150.645 351.96 150.744C351.974 150.843 351.967 150.944 351.941 151.041C351.916 151.137 351.871 151.228 351.81 151.308C326.722 184.198 318.342 224.299 315.73 252.147C312.898 282.34 316.045 305.012 316.077 305.237C316.092 305.345 316.084 305.455 316.053 305.56C316.022 305.664 315.969 305.761 315.897 305.844C315.826 305.926 315.737 305.992 315.638 306.037C315.539 306.082 315.431 306.106 315.321 306.106V306.106Z" fill="#3F3D56"/>
<path d="M327.972 194.254C327.811 194.254 327.654 194.204 327.524 194.109C327.394 194.015 327.297 193.881 327.247 193.729C327.197 193.576 327.197 193.411 327.247 193.258C327.296 193.105 327.393 192.972 327.524 192.877C327.615 192.81 336.873 186.147 350.714 181.084C363.508 176.405 382.964 172.163 402.994 178.531C403.187 178.592 403.347 178.727 403.44 178.907C403.533 179.086 403.55 179.295 403.489 179.487C403.428 179.68 403.292 179.84 403.113 179.933C402.933 180.025 402.724 180.043 402.532 179.982C382.913 173.745 363.809 177.917 351.238 182.514C337.595 187.504 328.51 194.043 328.42 194.109C328.29 194.203 328.133 194.254 327.972 194.254V194.254Z" fill="#3F3D56"/>
<path d="M129.442 261.605C158.899 250.262 168.583 204.278 151.072 158.896C133.56 113.514 95.4846 85.9202 66.0272 97.2628C36.5698 108.606 26.8857 154.59 44.3971 199.972C61.9085 245.353 99.9842 272.948 129.442 261.605Z" fill="#FFBC0F"/>
<path d="M131.839 326.821C132.022 326.821 132.199 326.754 132.337 326.634C132.476 326.514 132.566 326.348 132.592 326.167C132.625 325.94 135.796 303.089 132.948 272.72C130.317 244.674 121.869 204.277 96.5623 171.1C96.5017 171.02 96.426 170.953 96.3394 170.902C96.2529 170.852 96.1572 170.819 96.0579 170.806C95.9586 170.792 95.8576 170.798 95.7606 170.824C95.6637 170.849 95.5728 170.894 95.4931 170.954C95.4134 171.015 95.3464 171.091 95.2961 171.177C95.2457 171.264 95.2129 171.36 95.1996 171.459C95.1863 171.558 95.1927 171.659 95.2185 171.756C95.2443 171.852 95.2889 171.943 95.3498 172.023C120.438 204.913 128.818 245.014 131.43 272.862C134.262 303.055 131.115 325.727 131.083 325.952C131.068 326.06 131.076 326.17 131.107 326.275C131.138 326.38 131.191 326.476 131.262 326.559C131.334 326.641 131.423 326.707 131.522 326.752C131.621 326.798 131.729 326.821 131.839 326.821V326.821Z" fill="#3F3D56"/>
<path d="M119.188 214.969C119.349 214.969 119.505 214.919 119.636 214.824C119.766 214.73 119.863 214.597 119.913 214.444C119.963 214.291 119.963 214.126 119.913 213.973C119.863 213.82 119.767 213.687 119.636 213.592C119.544 213.525 110.286 206.862 96.4459 201.799C83.6514 197.12 64.1954 192.878 44.1659 199.246C44.0703 199.276 43.9816 199.325 43.9049 199.389C43.8282 199.454 43.765 199.533 43.7189 199.622C43.6727 199.711 43.6446 199.808 43.6361 199.907C43.6275 200.007 43.6388 200.108 43.6692 200.203C43.6996 200.298 43.7485 200.387 43.8132 200.463C43.8778 200.54 43.957 200.603 44.046 200.649C44.1351 200.695 44.2324 200.722 44.3322 200.731C44.4321 200.739 44.5327 200.728 44.6281 200.697C64.2473 194.46 83.3506 198.632 95.9218 203.229C109.565 208.219 118.65 214.758 118.74 214.824C118.87 214.918 119.027 214.969 119.188 214.969Z" fill="#3F3D56"/>
<path d="M92.2101 359.175C92.171 359.058 88.3814 347.345 95.0882 336.893L95.7731 337.332C89.2809 347.449 92.944 358.805 92.9818 358.918L92.2101 359.175Z" fill="#E4E4E4"/>
<path d="M99.6142 338.697C99.4242 339.37 99.1033 340 98.6699 340.549C98.2364 341.099 97.6988 341.557 97.0879 341.899C96.4769 342.241 95.8045 342.46 95.109 342.542C94.4135 342.624 93.7086 342.569 93.0345 342.379C91.6731 341.996 90.5199 341.088 89.8285 339.856C89.4862 339.246 89.2675 338.574 89.1851 337.879C89.1026 337.184 89.1579 336.48 89.3479 335.807C90.1468 332.975 94.9841 325.949 97.819 326.747C100.654 327.545 100.413 335.865 99.6142 338.697Z" fill="#E4E4E4"/>
<path d="M98.9125 351.861C96.3405 354.638 91.7391 354.563 91.7391 354.563C91.7391 354.563 91.3079 349.986 93.8799 347.209C96.452 344.433 101.053 344.508 101.053 344.508C101.053 344.508 101.485 349.085 98.9125 351.861Z" fill="#E4E4E4"/>
<path d="M360.223 339.268C360.184 339.151 356.395 327.438 363.102 316.986L363.786 317.425C357.294 327.542 360.957 338.898 360.995 339.011L360.223 339.268Z" fill="#E4E4E4"/>
<path d="M367.897 318.489C367.753 319.174 367.476 319.824 367.08 320.402C366.684 320.98 366.179 321.474 365.592 321.856C365.005 322.239 364.348 322.502 363.66 322.63C362.971 322.759 362.263 322.751 361.578 322.607C360.892 322.462 360.242 322.184 359.664 321.789C359.086 321.393 358.591 320.888 358.209 320.301C357.827 319.714 357.564 319.058 357.436 318.37C357.307 317.682 357.316 316.975 357.461 316.291C358.069 313.412 363.221 306.247 366.103 306.854C368.985 307.461 368.505 315.61 367.897 318.489Z" fill="#E4E4E4"/>
<path d="M366.926 331.954C364.354 334.731 359.752 334.656 359.752 334.656C359.752 334.656 359.321 330.079 361.893 327.302C364.465 324.526 369.067 324.601 369.067 324.601C369.067 324.601 369.498 329.178 366.926 331.954Z" fill="#E4E4E4"/>
<path d="M132.624 326.14C132.624 326.14 183.461 218.073 239.992 234.73C296.522 251.387 257.479 337.922 257.479 337.922L132.624 326.14Z" fill="#CACACA"/>
<path d="M131.725 328.819L138.638 319.475L208.59 296.724L326.211 308.264L326.503 312.771L289.116 351.57L131.725 328.819Z" fill="#3F3D56"/>
<path d="M206.231 357.656H209.93L211.69 343.402H206.23L206.231 357.656Z" fill="#A0616A"/>
<path d="M205.288 356.45L212.573 356.449H212.574C213.805 356.449 214.986 356.938 215.856 357.808C216.727 358.677 217.216 359.857 217.216 361.087V361.238L205.288 361.238L205.288 356.45Z" fill="#2F2E41"/>
<path d="M191.91 350.086L188.913 352.252L179.123 341.734L183.546 338.537L191.91 350.086Z" fill="#A0616A"/>
<path d="M194.777 352.435L185.113 359.42L185.024 359.298C184.303 358.302 184.007 357.06 184.202 355.845C184.397 354.63 185.067 353.543 186.064 352.822L186.064 352.822L191.967 348.555L194.777 352.435Z" fill="#2F2E41"/>
<path d="M195.96 294.676C195.96 294.676 192.078 291.772 187.881 294.676L184.977 318.877H193.698L194.99 311.133L197.898 299.516L195.96 294.676Z" fill="#2F2E41"/>
<path d="M204.697 332.053L189.044 326.947L181.582 332.863L189.509 344.969L185.363 350.401L185.244 350.266C184.73 349.681 172.646 335.887 172.681 331.974C172.771 329.32 173.22 326.69 174.016 324.155L177.941 318.59L183.512 316.953L201.956 319.539L201.986 319.543L209.438 324.074C210.176 324.547 210.797 325.18 211.257 325.925C211.717 326.671 212.004 327.51 212.096 328.38C212.416 331.257 213.059 354.298 213.066 354.531L213.07 354.681H205.021L204.697 332.053Z" fill="#2F2E41"/>
<path d="M194.769 326.272C192.049 325.065 188.574 320.348 188.002 319.553C186.882 320.162 178.718 324.52 176.417 323.4C176.083 323.584 174.572 324.485 174.299 325.844L174.231 326.185L174.034 325.898C173.998 325.846 170.452 320.579 175.039 317.306C179.221 314.322 180.346 311.307 180.464 310.962L178.195 298.98L178.254 298.925C178.441 298.752 182.858 294.692 186.889 294.209L189.376 293.771L189.485 303.227V315.333C191.494 315.081 194.672 293.928 194.672 293.928L196.333 294.536C196.762 294.618 201.586 295.581 202.866 297.499L202.907 297.561L198.52 309.409L197.237 311.339V313.809L204.733 320.32L204.626 320.431C204.371 320.698 198.844 326.441 195.624 326.44C195.331 326.445 195.039 326.388 194.769 326.272V326.272Z" fill="#2F2E41"/>
<path d="M191.912 291.354C195.903 291.354 199.139 288.122 199.139 284.135C199.139 280.148 195.903 276.916 191.912 276.916C187.921 276.916 184.686 280.148 184.686 284.135C184.686 288.122 187.921 291.354 191.912 291.354Z" fill="#A0616A"/>
<path d="M190.093 328.422C190.144 328.012 190.285 327.619 190.506 327.269C190.727 326.919 191.021 326.622 191.369 326.399C191.717 326.175 192.11 326.031 192.52 325.975C192.929 325.919 193.347 325.954 193.742 326.077L197.883 321.117L201.515 322.897L195.567 329.819C195.316 330.468 194.836 331.003 194.217 331.322C193.598 331.641 192.884 331.722 192.209 331.55C191.534 331.377 190.946 330.964 190.556 330.388C190.166 329.811 190.001 329.112 190.093 328.422V328.422Z" fill="#A0616A"/>
<path d="M193.02 324.216L199.518 315.453L197.908 306.771L200.52 296.989L200.585 296.961C200.638 296.938 201.888 296.412 202.839 296.806C203.034 296.887 203.21 297.006 203.356 297.158C203.502 297.309 203.614 297.49 203.687 297.687C204.334 299.301 205.892 315.744 205.958 316.472C205.945 316.605 205.625 319.741 204.974 321.041C204.327 322.335 198.419 328.863 198.168 329.141L198.064 329.255L193.02 324.216Z" fill="#2F2E41"/>
<path d="M198.12 282.277C195.715 285.299 191.592 284.745 188.293 283.64C188.485 286.059 187.827 288.469 186.433 290.457C186.859 288.743 185.064 288.402 184.017 287.764C183.614 287.254 183.949 286.493 183.784 285.865C181.903 283.663 180.657 282.001 183.071 279.417C184.484 277.528 186.18 275.169 188.872 275.665C191.002 273.183 194.493 273.829 196.874 275.565C197.945 276.356 198.919 277.271 199.776 278.289C199.502 279.629 198.992 280.91 198.269 282.072" fill="#2F2E41"/>
<path d="M224.537 333.453L287.286 342.835L325.922 308.303C325.922 308.303 307.621 233.143 241.736 227.862C175.851 222.58 128.268 329.022 128.268 329.022L135.168 329.317C135.168 329.317 170.971 246.55 219.774 244.112C268.578 241.675 224.537 333.453 224.537 333.453Z" fill="#E4E4E4"/>
<path d="M236.941 256.465H195.458C193.193 256.465 191.021 255.566 189.419 253.966C187.817 252.366 186.917 250.196 186.917 247.934C186.917 245.671 187.817 243.501 189.419 241.901C191.021 240.301 193.193 239.402 195.458 239.402H236.941C239.206 239.402 241.379 240.301 242.98 241.901C244.582 243.501 245.482 245.671 245.482 247.934C245.482 250.196 244.582 252.366 242.98 253.966C241.379 255.566 239.206 256.465 236.941 256.465V256.465Z" fill="#CACACA"/>
<path d="M276.533 307.862C276.183 307.652 275.883 307.368 275.655 307.029C275.426 306.691 275.275 306.307 275.212 305.903C275.148 305.5 275.174 305.088 275.287 304.696C275.401 304.304 275.599 303.941 275.867 303.634L272.236 267.232L278.3 267.634L279.979 303.479C280.466 303.964 280.758 304.611 280.8 305.297C280.842 305.982 280.63 306.66 280.205 307.2C279.78 307.74 279.172 308.106 278.495 308.228C277.818 308.35 277.12 308.22 276.533 307.862V307.862Z" fill="#FFB8B8"/>
<path d="M280.756 265.884L279.166 277.953L279.387 285.351L272.718 285.961L271.381 279.808L270.645 263.52C270.589 262.292 271.002 261.088 271.799 260.151C272.597 259.215 273.721 258.615 274.944 258.473V258.473C276.212 258.325 277.488 258.682 278.496 259.466C279.503 260.25 280.162 261.399 280.329 262.664L280.756 265.884Z" fill="#2F2E41"/>
<path d="M255.216 372.083L251.171 372.083L249.246 356.495L255.217 356.495L255.216 372.083Z" fill="#FFB7B7"/>
<path d="M256.248 376L243.204 376V375.835C243.204 374.49 243.739 373.2 244.691 372.249C245.643 371.297 246.934 370.763 248.281 370.763H248.281L256.248 370.763L256.248 376Z" fill="#2F2E41"/>
<path d="M288.62 372.083L284.575 372.083L282.65 356.495L288.621 356.495L288.62 372.083Z" fill="#FFB7B7"/>
<path d="M289.652 376L276.608 376V375.835C276.608 374.49 277.143 373.2 278.095 372.249C279.047 371.297 280.339 370.763 281.685 370.763H281.685L289.652 370.763L289.652 376Z" fill="#2F2E41"/>
<path d="M272.889 252.735C277.733 252.735 281.66 248.813 281.66 243.974C281.66 239.135 277.733 235.212 272.889 235.212C268.045 235.212 264.118 239.135 264.118 243.974C264.118 248.813 268.045 252.735 272.889 252.735Z" fill="#FFB8B8"/>
<path d="M271.755 256.292L277.842 256.987C279.322 259.084 280.282 261.503 280.642 264.043C281.002 266.584 280.753 269.173 279.913 271.598L275.321 284.87C275.321 284.87 281.696 297.638 281.696 309.493C281.696 321.347 293.838 363.661 293.838 363.661L276.747 365.442L269.29 320.366L259.013 365.26L247.281 363.353L253.743 304.491L258.013 285.117L258.195 275.668C258.195 275.668 256.379 268.579 260.923 264.04L266.47 256.318L271.755 256.292Z" fill="#2F2E41"/>
<path d="M262.665 240.845H275.553V235.233C272.724 234.11 269.956 233.155 268.283 235.233C266.793 235.233 265.364 235.824 264.31 236.876C263.256 237.929 262.665 239.356 262.665 240.845V240.845Z" fill="#2F2E41"/>
<path d="M276.267 234.242C283.972 234.242 286.129 243.89 286.129 249.333C286.129 252.368 284.754 253.454 282.595 253.821L281.832 249.758L280.046 253.996C279.44 253.999 278.802 253.987 278.142 253.975L277.536 252.729L276.186 253.953C270.777 253.961 266.405 254.748 266.405 249.333C266.405 243.89 268.297 234.242 276.267 234.242Z" fill="#2F2E41"/>
<path opacity="0.2" d="M264.872 287.531L264.547 273.399L263.682 267.124L261.546 273.339L264.872 287.531Z" fill="black"/>
<path d="M289.729 297.329L275.781 296.138L275.193 256.563L281.994 257C282.425 257.029 282.841 257.167 283.203 257.401C283.565 257.636 283.862 257.959 284.064 258.34L292.988 275.251L292.466 294.884C292.449 295.539 292.176 296.163 291.707 296.621C291.237 297.079 290.607 297.336 289.95 297.338C289.877 297.338 289.803 297.335 289.729 297.329Z" fill="#C2C2C2"/>
<path d="M258.383 270.904C258.383 262.141 263.722 255.013 270.286 255.013C276.849 255.013 282.188 262.141 282.188 270.904C282.188 279.666 276.849 286.794 270.286 286.794C263.722 286.794 258.383 279.666 258.383 270.904ZM259.94 270.904C259.94 278.808 264.581 285.238 270.286 285.238C275.99 285.238 280.631 278.808 280.631 270.904C280.631 262.999 275.99 256.569 270.286 256.569C264.581 256.569 259.94 262.999 259.94 270.904V270.904Z" fill="#C2C2C2"/>
<path d="M289.308 295.25L290.225 275.27L280.829 256.922L280.433 257.125L289.775 275.367L288.863 295.229L289.308 295.25Z" fill="#3F3D56"/>
<path d="M266.442 309.333C266.072 309.083 265.761 308.754 265.531 308.37C265.302 307.986 265.159 307.557 265.114 307.112C265.068 306.667 265.121 306.217 265.268 305.795C265.415 305.373 265.654 304.988 265.966 304.668L264.159 264.626L270.769 265.426L270.474 304.742C270.978 305.302 271.259 306.027 271.264 306.78C271.268 307.532 270.996 308.261 270.499 308.827C270.002 309.393 269.315 309.757 268.567 309.85C267.819 309.944 267.063 309.76 266.442 309.333V309.333Z" fill="#FFB8B8"/>
<path d="M273.561 263.657L271.103 276.768L270.904 284.874L263.572 285.145L262.476 278.335L262.639 260.471C262.652 259.123 263.175 257.831 264.103 256.854C265.032 255.876 266.297 255.287 267.643 255.204V255.204C269.04 255.118 270.414 255.584 271.47 256.502C272.526 257.419 273.178 258.715 273.286 260.109L273.561 263.657Z" fill="#2F2E41"/>
<path d="M167.112 323.339C166.692 323.338 166.289 323.173 165.989 322.88C165.689 322.588 165.514 322.189 165.503 321.77L165.17 309.218L170.875 298.406C171.004 298.163 171.194 297.956 171.426 297.806C171.657 297.657 171.923 297.568 172.199 297.549L176.547 297.271L176.171 322.572L167.253 323.333C167.206 323.337 167.159 323.339 167.112 323.339Z" fill="#C2C2C2"/>
<path d="M179.684 316.598C175.488 316.598 172.075 312.041 172.075 306.439C172.075 300.837 175.488 296.279 179.684 296.279C183.881 296.279 187.294 300.837 187.294 306.439C187.294 312.041 183.881 316.598 179.684 316.598ZM179.684 297.274C176.037 297.274 173.07 301.385 173.07 306.439C173.07 311.492 176.037 315.604 179.684 315.604C183.332 315.604 186.299 311.492 186.299 306.439C186.299 301.385 183.332 297.274 179.684 297.274Z" fill="#C2C2C2"/>
<path d="M167.523 322.004L166.937 309.23L172.944 297.5L173.197 297.629L167.225 309.292L167.807 321.991L167.523 322.004Z" fill="#3F3D56"/>
<path d="M197.708 331.794C197.661 331.812 197.613 331.825 197.563 331.832L191.475 332.681C191.327 332.702 191.177 332.672 191.049 332.596C190.921 332.521 190.822 332.404 190.769 332.265L185.529 318.643C185.495 318.555 185.48 318.46 185.486 318.366C185.492 318.272 185.518 318.18 185.563 318.097C185.608 318.013 185.67 317.941 185.745 317.884C185.82 317.826 185.907 317.786 186 317.766H186L191.725 316.489C191.769 316.479 191.812 316.464 191.852 316.443L197.421 313.534C197.464 313.512 197.509 313.494 197.556 313.482L203.685 311.85C203.842 311.807 204.009 311.825 204.154 311.899C204.299 311.973 204.411 312.097 204.469 312.249L209.038 324.127C209.078 324.23 209.092 324.342 209.076 324.452C209.061 324.562 209.018 324.666 208.952 324.755L207.372 326.875C207.297 326.975 207.196 327.052 207.08 327.096L203.626 328.422C203.601 328.431 203.577 328.443 203.554 328.456L197.799 331.751C197.77 331.768 197.739 331.782 197.708 331.794V331.794Z" fill="white"/>
<path d="M200.54 313.666L199.762 313.873L197.7 314.422L197.696 314.423L194.872 315.898L193.825 316.445L193.824 316.446L192.25 317.268L192.207 317.277L190.572 317.641L189.782 317.818L186.56 318.536L191.619 331.687L194.94 331.224L195.754 331.11L197.489 330.868L197.51 330.865L203.087 327.672L206.48 326.37L208.029 324.291L203.625 312.844L200.54 313.666Z" fill="#E4E4E4"/>
<path d="M204.351 314.73L187.573 321.171L187.861 321.918L204.638 315.477L204.351 314.73Z" fill="white"/>
<path d="M205.309 317.22L188.531 323.66L188.819 324.407L205.596 317.966L205.309 317.22Z" fill="white"/>
<path d="M207.243 322.248L190.466 328.689L190.753 329.436L207.53 322.995L207.243 322.248Z" fill="white"/>
<path d="M200.54 313.666L205.563 326.721L204.816 327.008L199.762 313.873L200.54 313.666Z" fill="white"/>
<path d="M194.873 315.898L193.841 318.765L193.484 319.759L192.649 322.08L192.47 322.575L192.292 323.074L192.056 323.728L190.365 328.429L189.926 327.286L191.304 323.453L191.616 322.585L191.662 322.459L192.031 321.432L192.496 320.138L192.854 319.144L193.824 316.446L193.825 316.445L194.873 315.898Z" fill="white"/>
<path d="M190.572 317.641L195.754 331.11L194.94 331.224L189.782 317.818L190.572 317.641Z" fill="white"/>
<path d="M192.594 330.532C192.542 330.122 192.401 329.729 192.18 329.379C191.96 329.029 191.665 328.732 191.317 328.509C190.969 328.285 190.576 328.141 190.167 328.085C189.757 328.029 189.34 328.064 188.945 328.187L184.803 323.227L181.171 325.007L187.119 331.929C187.37 332.578 187.85 333.113 188.469 333.432C189.088 333.751 189.803 333.832 190.477 333.66C191.152 333.487 191.74 333.074 192.13 332.498C192.52 331.921 192.685 331.222 192.594 330.532V330.532Z" fill="#A0616A"/>
<path d="M184.565 329.644C184.195 329.366 175.482 322.824 174.508 320.879C173.533 318.931 173.775 313.163 173.787 312.901C173.803 312.81 175.32 303.796 176.603 300.591C177.934 297.266 181.283 298.56 181.316 298.573L181.418 298.614L179.96 315.607L187.913 326.147L184.673 329.724L184.565 329.644Z" fill="#2F2E41"/>
</svg>
