<svg width="800" height="800" viewBox="0 0 800 800" fill="none" xmlns="http://www.w3.org/2000/svg">
<g clip-path="url(#clip0_104_234)">
<path d="M533.641 360.178C573.485 360.178 605.785 331.651 605.785 296.462C605.785 261.272 573.485 232.746 533.641 232.746C493.797 232.746 461.497 261.272 461.497 296.462C461.497 331.651 493.797 360.178 533.641 360.178Z" fill="#B7D9BA"/>
<path d="M731.536 343.968C731.695 343.943 731.815 343.844 732 343.869C731.919 343.594 731.813 343.324 731.684 343.063C731.454 343.339 731.22 343.621 731.015 343.868L731.536 343.968Z" fill="white"/>
<path d="M247.655 447.265C248.076 461.167 250.713 474.946 255.487 488.197C255.596 488.505 255.71 488.808 255.825 489.115H285.052C285.021 488.84 284.99 488.533 284.959 488.197C283.01 468.411 271.774 347.983 285.208 327.388C284.034 329.059 245.389 384.394 247.655 447.265Z" fill="#E6E6E6"/>
<path d="M249.848 488.197C250.093 488.505 250.347 488.812 250.607 489.115H272.533C272.367 488.854 272.174 488.546 271.951 488.197C268.329 482.423 257.607 465.161 247.655 447.265C236.96 428.034 227.148 408.073 227.974 400.848C227.72 402.478 220.319 452.149 249.848 488.197Z" fill="#E6E6E6"/>
<path d="M477.689 491.507C477.322 503.626 475.023 515.64 470.861 527.192C470.766 527.461 470.666 527.725 470.567 527.993H445.086C445.113 527.753 445.14 527.485 445.167 527.192C446.866 509.942 456.662 404.951 444.95 386.997C445.974 388.453 479.664 436.695 477.689 491.507Z" fill="#E6E6E6"/>
<path d="M475.777 527.193C475.564 527.461 475.342 527.729 475.115 527.993H456C456.145 527.765 456.313 527.497 456.507 527.193C459.665 522.159 469.012 507.109 477.689 491.508C487.013 474.741 495.567 457.339 494.847 451.041C495.069 452.461 501.521 495.765 475.777 527.193Z" fill="#E6E6E6"/>
<path d="M186.344 134.717L198.227 126.323C188.995 125.424 185.203 129.87 183.65 133.39C176.438 130.745 168.587 134.211 168.587 134.211L192.363 141.834C191.163 139.005 189.076 136.536 186.344 134.717V134.717Z" fill="#3F3D56"/>
<path d="M544.246 91.5113L556.129 83.1176C546.898 82.2181 543.105 86.6645 541.553 90.1838C534.341 87.539 526.49 91.0052 526.49 91.0052L550.265 98.6282C549.066 95.7988 546.978 93.33 544.246 91.5113V91.5113Z" fill="#3F3D56"/>
<path d="M719.081 423.445C719.081 430.4 718.807 437.298 718.258 444.139C714.026 498.113 692.835 549.975 657.068 593.899C652.394 599.66 647.486 605.26 642.345 610.698C629.022 624.81 614.231 637.786 598.164 649.457L527.738 612.96L485.63 526.162C485.63 526.162 548.456 413.816 718.97 415.853C719.041 418.375 719.078 420.905 719.081 423.445Z" fill="#3F3D56"/>
<path d="M718.258 444.139C715.018 484.472 702.348 523.774 681.046 559.565C659.745 595.356 630.275 626.859 594.496 652.086L529.069 618.182L491.727 541.203C491.727 541.203 552.236 433.002 718.258 444.139Z" fill="#B7D9BA"/>
<path d="M657.068 593.899C652.394 599.66 647.486 605.26 642.345 610.698C607.893 647.256 563.871 675.847 514.091 693.996C504.011 697.666 493.694 700.903 483.14 703.706C406.933 721.604 326.196 717.077 253.164 690.81C180.936 662.338 122.568 612.055 88.5441 548.992C83.9716 540.503 79.8597 531.798 76.2085 522.878C139.888 481.678 265.368 422.682 402.126 480.009C439.956 495.866 473.735 510.32 503.463 523.371C578.899 556.396 629.105 580.204 657.068 593.899Z" fill="#3F3D56"/>
<path d="M642.344 610.698C606.731 648.393 560.956 677.573 509.23 695.554C457.504 713.534 401.489 719.737 346.339 713.592C291.188 707.447 238.673 689.151 193.624 660.388C148.576 631.625 112.441 593.318 88.5439 548.992C141.727 511.848 264.392 445.099 399.006 501.519C433.625 516.03 464.532 529.258 491.726 541.203C571.003 575.905 619.837 599.489 642.344 610.698Z" fill="#CAEAA8"/>
<path d="M548.476 679.359C537.339 684.812 525.859 689.698 514.091 693.996C474.045 708.571 431.143 716.047 387.829 716C336.576 715.982 286.026 705.47 240.148 685.291C194.27 665.111 154.313 635.812 123.417 599.696C202.531 592.328 421.219 582.394 548.476 679.359Z" fill="#3F3D56"/>
<path d="M514.091 693.995C451.993 716.546 383.608 721.917 317.979 709.399C252.35 696.881 192.569 667.064 146.543 623.89C175.32 620.156 401.242 594.517 514.091 693.995Z" fill="#3FAD48"/>
<path d="M663.52 261.212V261.221C426.99 106.768 155.994 215.48 153.9 216.314V216.305C184.617 189.181 221.09 167.674 261.231 153.017C301.372 138.36 344.393 130.841 387.829 130.89C502.823 130.89 604.129 182.644 663.52 261.212Z" fill="#E6E6E6"/>
<path d="M172.872 429.116C212.885 422.745 233.389 359.127 218.669 287.021C203.949 214.916 159.579 161.628 119.566 167.999C79.5524 174.371 59.0482 237.989 73.7682 310.094C88.4883 382.2 132.858 435.488 172.872 429.116Z" fill="#3F3D56"/>
<path d="M183.155 513.327C180.782 354.947 120.782 206.317 120.176 204.836L114.704 206.579C115.307 208.053 174.978 355.904 177.338 513.396L183.155 513.327Z" fill="#7D8E5A"/>
<path d="M76.7014 280.641L74.9111 285.53L146.744 306.047L148.534 301.157L76.7014 280.641Z" fill="#3FAD48"/>
<path d="M211.825 275.133L152.64 316.531L156.252 320.559L215.437 279.161L211.825 275.133Z" fill="#3FAD48"/>
<path d="M365.27 406.283C409.266 406.283 444.932 342.011 444.932 262.729C444.932 183.446 409.266 119.174 365.27 119.174C321.274 119.174 285.608 183.446 285.608 262.729C285.608 342.011 321.274 406.283 365.27 406.283Z" fill="#3F3D56"/>
<path d="M357.913 497.704C389.819 328.64 358.235 160.186 357.912 158.506L351.706 159.434C352.027 161.107 383.43 328.675 351.704 496.792L357.913 497.704Z" fill="#7D8E5A"/>
<path d="M295.135 231.86L292.166 236.763L364.202 270.793L367.171 265.89L295.135 231.86Z" fill="#3FAD48"/>
<path d="M440.229 248.907L368.201 282.956L371.172 287.858L443.2 253.809L440.229 248.907Z" fill="#3FAD48"/>
<path d="M711.298 360.106C682.069 345.613 651.533 333.283 620 323.241C445.646 267.52 272.754 288.995 205.082 368.739C257.747 271.047 445.666 240.329 635.303 300.931C657.374 307.978 678.974 316.128 699.999 325.34C704.579 336.71 708.353 348.321 711.298 360.106V360.106Z" fill="#E6E6E6"/>
<path d="M475.821 202.901L487.704 194.507C478.473 193.607 474.68 198.054 473.127 201.573C465.915 198.928 458.064 202.395 458.064 202.395L481.84 210.018C480.64 207.188 478.552 204.719 475.821 202.901Z" fill="#3F3D56"/>
</g>
<defs>
<clipPath id="clip0_104_234">
<rect width="663" height="633" fill="white" transform="translate(69 83)"/>
</clipPath>
</defs>
</svg>
