<svg width="79" height="90" viewBox="0 0 79 90" fill="none" xmlns="http://www.w3.org/2000/svg">
<path d="M76.84 25.31V19.19L64.42 21.08C61.45 19.37 56.86 18.02 51.19 18.02C38.68 18.02 30.04 24.14 30.04 34.94C30.04 40.97 33.19 45.92 38.05 48.71C33.73 50.96 29.77 54.02 29.77 58.61C29.77 62.93 33.55 65.72 37.6 66.89C32.11 68.69 26.62 72.38 26.62 78.14C26.62 85.97 35.8 89.48 50.2 89.48C65.14 89.48 77.11 82.91 77.11 72.47C77.11 65.18 71.71 58.88 56.5 58.88H45.97C40.75 58.88 38.41 57.35 38.41 54.92C38.41 53.12 39.67 51.68 41.83 50.24C44.71 51.41 48.13 51.95 51.55 51.95C63.34 51.95 72.52 46.55 72.52 34.85C72.52 30.62 70.99 27.11 68.11 24.32L76.84 25.31ZM51.37 47.81C46.33 47.81 43.36 42.86 43.36 34.94C43.36 28.37 45.88 22.16 51.28 22.16C56.77 22.16 59.11 28.28 59.11 34.85C59.11 42.05 56.95 47.81 51.37 47.81ZM54.07 68.51C63.7 68.51 66.31 72.11 66.31 75.62C66.31 81.29 59.56 85.43 50.65 85.43C42.01 85.43 37.24 81.83 37.24 76.88C37.24 73.82 39.13 70.94 42.46 68.51H54.07Z" fill="#A7A7A7"/>
<path d="M2.7 68H32.31V63.68C24.66 63.68 24.21 62.69 24.21 55.94V38.84H28.89C39.87 38.84 45.63 37.13 49.86 33.8C54.27 30.47 56.25 25.34 56.25 18.95C56.25 12.74 53.73 7.79 49.59 4.73C45.36 1.67 39.78 0.319997 30.33 0.319997H2.7L2.7 4.73C9.36 4.73 10.08 5.72 10.08 12.47L10.08 55.94C10.08 62.6 9.36 63.68 2.7 63.68L2.7 68ZM24.21 33.62V10.58C24.21 6.44 24.48 5.54 26.28 5.54H29.25C33.75 5.54 41.76 6.34999 41.76 19.4C41.76 27.68 38.7 33.62 28.8 33.62H24.21Z" fill="#EDEDED"/>
</svg>
