<svg width="400" height="269" viewBox="0 0 400 269" fill="none" xmlns="http://www.w3.org/2000/svg">
<path d="M2.7 124H32.31V119.68C24.66 119.68 24.21 118.69 24.21 111.94V94.84H28.89C39.87 94.84 45.63 93.13 49.86 89.8C54.27 86.47 56.25 81.34 56.25 74.95C56.25 68.74 53.73 63.79 49.59 60.73C45.36 57.67 39.78 56.32 30.33 56.32H2.7V60.73C9.36 60.73 10.08 61.72 10.08 68.47V111.94C10.08 118.6 9.36 119.68 2.7 119.68V124ZM24.21 89.62V66.58C24.21 62.44 24.48 61.54 26.28 61.54H29.25C33.75 61.54 41.76 62.35 41.76 75.4C41.76 83.68 38.7 89.62 28.8 89.62H24.21ZM88.8652 94.57L82.7452 96.1C76.4452 97.54 71.5852 99.43 68.1652 101.68C63.5752 104.47 61.5952 108.16 61.5952 113.02C61.5952 121.39 68.7952 125.17 75.0952 125.17C82.5652 125.17 86.2552 122.47 89.1352 119.59H89.4952C90.9352 123.01 93.3652 124.54 98.7652 124.54C103.085 124.54 105.785 124 108.215 123.01L107.495 119.41C106.775 119.86 105.875 120.13 104.975 120.13C103.085 120.13 102.095 118.51 102.095 113.65V93.13C102.095 78.1 91.4752 77.02 83.1952 77.02C66.9052 77.02 63.7552 84.04 63.7552 87.28C63.7552 89.62 65.1952 91.69 68.6152 91.69C72.0352 91.69 73.4752 90.34 74.3752 88.09C75.1852 85.57 76.9852 81.16 82.2052 81.16C85.8952 81.16 88.8652 83.05 88.8652 90.43V94.57ZM88.8652 115.18C87.2452 116.8 84.9952 118.87 81.6652 118.87C77.9752 118.87 75.4552 116.35 75.4552 110.95C75.4552 104.29 81.1252 100.87 88.8652 98.44V115.18ZM130.308 84.67L129.948 77.83L128.238 77.02C122.928 79.45 116.628 80.89 111.768 81.43V85.03C116.628 84.94 117.258 85.84 117.258 92.32V112.75C117.258 119.41 116.718 120.22 111.768 120.22V124H134.448V120.22C130.758 120.22 130.488 119.59 130.488 112.84V90.34C133.728 85.66 137.238 82.69 140.208 82.69C145.338 82.69 146.148 87.28 146.148 92.23V112.75C146.148 119.59 145.788 120.22 142.008 120.22V124H163.968V120.22C159.918 120.22 159.378 118.87 159.378 113.02V91.96C159.378 82.96 155.868 77.02 145.248 77.02C139.218 77.02 134.358 79.99 130.488 84.67H130.308ZM217.514 84.31V78.19L205.094 80.08C202.124 78.37 197.534 77.02 191.864 77.02C179.354 77.02 170.714 83.14 170.714 93.94C170.714 99.97 173.864 104.92 178.724 107.71C174.404 109.96 170.444 113.02 170.444 117.61C170.444 121.93 174.224 124.72 178.274 125.89C172.784 127.69 167.294 131.38 167.294 137.14C167.294 144.97 176.474 148.48 190.874 148.48C205.814 148.48 217.784 141.91 217.784 131.47C217.784 124.18 212.384 117.88 197.174 117.88H186.644C181.424 117.88 179.084 116.35 179.084 113.92C179.084 112.12 180.344 110.68 182.504 109.24C185.384 110.41 188.804 110.95 192.224 110.95C204.014 110.95 213.194 105.55 213.194 93.85C213.194 89.62 211.664 86.11 208.784 83.32L217.514 84.31ZM192.044 106.81C187.004 106.81 184.034 101.86 184.034 93.94C184.034 87.37 186.554 81.16 191.954 81.16C197.444 81.16 199.784 87.28 199.784 93.85C199.784 101.05 197.624 106.81 192.044 106.81ZM194.744 127.51C204.374 127.51 206.984 131.11 206.984 134.62C206.984 140.29 200.234 144.43 191.324 144.43C182.684 144.43 177.914 140.83 177.914 135.88C177.914 132.82 179.804 129.94 183.134 127.51H194.744ZM258.169 112.66C255.289 117.43 251.869 120.04 247.189 120.04C244.039 120.04 241.159 118.42 239.269 115.09C237.379 111.76 236.389 106.63 236.389 100.42C236.389 87.55 240.439 81.16 245.659 81.16C248.449 81.16 249.979 83.14 251.059 86.47C252.049 89.26 253.489 91.96 256.909 91.96C259.609 91.96 261.139 89.98 261.139 87.1C261.139 82.42 255.559 77.02 245.479 77.02C231.439 77.02 222.349 85.66 222.349 100.78C222.349 108.52 224.599 115.27 228.919 119.68C232.519 123.19 237.469 125.17 244.489 125.17C251.509 125.17 257.629 122.02 262.039 114.64L258.169 112.66ZM294.353 94.57L288.233 96.1C281.933 97.54 277.073 99.43 273.653 101.68C269.063 104.47 267.083 108.16 267.083 113.02C267.083 121.39 274.283 125.17 280.583 125.17C288.053 125.17 291.743 122.47 294.623 119.59H294.983C296.423 123.01 298.853 124.54 304.253 124.54C308.573 124.54 311.273 124 313.703 123.01L312.983 119.41C312.263 119.86 311.363 120.13 310.463 120.13C308.573 120.13 307.583 118.51 307.583 113.65V93.13C307.583 78.1 296.963 77.02 288.683 77.02C272.393 77.02 269.243 84.04 269.243 87.28C269.243 89.62 270.683 91.69 274.103 91.69C277.523 91.69 278.963 90.34 279.863 88.09C280.673 85.57 282.473 81.16 287.693 81.16C291.383 81.16 294.353 83.05 294.353 90.43V94.57ZM294.353 115.18C292.733 116.8 290.483 118.87 287.153 118.87C283.463 118.87 280.943 116.35 280.943 110.95C280.943 104.29 286.613 100.87 294.353 98.44V115.18ZM317.256 124H340.116V120.22C336.516 120.22 335.976 119.59 335.976 112.84V90.25C339.216 85.93 342.636 82.69 345.876 82.69C351.096 82.69 351.636 87.28 351.636 93.49V112.75C351.636 119.59 351.186 120.22 347.316 120.22V124H369.546V120.22C365.316 120.22 364.866 118.96 364.866 112.93V93.04C364.866 87.1 364.236 77.02 351.186 77.02C345.246 77.02 339.936 80.17 336.156 84.49H335.976V54.34L334.446 53.53C328.506 55.87 322.116 57.31 317.256 57.94V61.45C322.116 61.45 322.746 62.26 322.746 68.47V112.75C322.746 119.32 322.206 120.22 317.256 120.22V124Z" fill="white"/>
<path d="M296.223 178.94C294.693 182.36 290.643 187.31 283.623 187.31C280.293 187.31 277.053 185.6 274.893 182.36C272.733 178.76 271.833 173.99 271.833 168.05H300.453C300.453 163.28 299.553 144.02 279.843 144.02C264.093 144.02 257.793 155.54 257.793 167.15C257.793 184.07 266.433 192.17 281.103 192.17C289.023 192.17 295.683 189.02 300.183 180.83L296.223 178.94ZM271.833 163.91C271.923 156.89 273.633 148.16 279.753 148.16C286.233 148.16 286.953 158.15 286.953 163.91H271.833ZM305.584 177.5C306.484 182.09 307.114 185.42 307.564 189.56C311.344 191 316.114 192.17 322.864 192.17C336.184 192.17 342.664 185.51 342.664 177.95C342.664 170.39 335.554 166.07 331.684 163.73C329.254 162.02 325.744 160.31 323.224 158.69C320.974 157.07 319.624 155.27 319.624 153.29C319.624 149.78 323.404 148.16 326.824 148.16C332.044 148.16 334.744 150.59 336.274 157.79L340.234 157.07C339.154 151.94 338.794 148.97 338.434 146C335.554 145.01 331.324 144.02 325.474 144.02C313.774 144.02 306.844 149.06 306.844 156.17C306.844 159.5 308.104 162.2 309.994 164.36C312.244 166.97 315.484 168.77 319.174 171.29C323.404 173.9 325.834 175.16 327.274 176.87C328.444 178.13 328.894 179.48 328.894 181.1C328.894 183.44 327.634 187.94 321.064 187.94C315.664 187.94 311.884 185.24 309.544 176.6L305.584 177.5ZM352.552 149.6V178.67C352.552 189.38 358.852 192.17 366.142 192.17C372.082 192.17 375.772 190.73 378.652 188.21L376.402 184.7C374.602 186.14 372.802 186.86 370.642 186.86C367.492 186.86 365.782 184.88 365.782 179.12V149.6H376.582V145.19H365.782V130.61H362.092C358.852 140.69 354.352 145.28 347.242 146.09V149.6H352.552ZM389.617 178.31C385.657 178.31 382.687 181.46 382.687 185.24C382.687 188.93 385.657 192.17 389.617 192.17C393.487 192.17 396.457 188.93 396.457 185.24C396.457 181.64 393.667 178.31 389.617 178.31Z" fill="white"/>
<path d="M216.52 213H242.8V209.22C236.14 209.22 235.6 208.68 235.6 201.84V171.6H245.14V167.19H235.6V160.8C235.6 154.14 236.41 150.54 237.67 148.47C238.48 147.21 239.56 146.67 240.82 146.67C243.34 146.67 243.97 149.19 244.87 151.71C245.77 154.32 246.94 156.84 250.63 156.84C253.87 156.84 255.22 154.95 255.22 152.16C255.22 148.02 250.81 142.53 240.55 142.53C230.83 142.53 222.37 147.12 222.37 161.07V167.19H216.61V171.6H222.37V201.57C222.37 208.59 221.74 209.22 216.52 209.22V213Z" fill="white"/>
</svg>
